<svg preserveAspectRatio="none" width="100%" height="100%" overflow="visible" style="display: block;" viewBox="0 0 573 283" fill="none" xmlns="http://www.w3.org/2000/svg">
<g id="C C_logo solo-01 2" clip-path="url(#clip0_0_104)">
<g id="Vector">
</g>
<g id="Group">
<path id="Vector_2" d="M215.525 181.081C188.77 181.081 174.65 161.137 174.65 141.439C174.65 121.74 188.647 101.797 215.278 101.797C235.963 101.797 251.446 114.521 253.676 133.364L254.047 136.789H230.885L230.389 134.22C229.027 126.879 223.453 122.474 215.401 122.474C203.015 122.474 197.441 132.262 197.441 141.439C197.441 152.45 205.121 160.403 215.649 160.403C222.833 160.403 228.531 156.61 230.265 150.37L230.885 148.168H254.295L253.676 151.839C250.579 169.335 235.096 181.081 215.525 181.081ZM215.278 108.037C191.619 108.037 180.967 125.411 180.967 141.439C180.967 158.079 192.858 174.841 215.525 174.841C230.885 174.841 242.776 166.888 246.739 154.408H235.715C232.495 161.994 225.063 166.643 215.773 166.643C201.776 166.643 191.372 155.876 191.372 141.439C191.372 128.959 199.671 116.234 215.649 116.234C225.806 116.234 233.486 121.618 236.211 130.549H246.987C243.643 116.846 231.628 108.037 215.278 108.037Z" fill="var(--fill-0, #231F20)"/>
<path id="Vector_3" d="M359.333 181.081C332.578 181.081 318.457 161.137 318.457 141.439C318.457 121.74 332.454 101.797 359.085 101.797C379.77 101.797 395.254 114.521 397.483 133.364L397.855 136.789H374.692L374.197 134.22C372.834 126.879 367.26 122.474 359.209 122.474C346.822 122.474 341.248 132.262 341.248 141.439C341.248 152.45 348.928 160.403 359.457 160.403C366.641 160.403 372.339 156.61 374.073 150.371L374.692 148.168H398.102L397.483 151.839C394.387 169.335 379.027 181.081 359.333 181.081ZM359.209 108.037C335.551 108.037 324.898 125.411 324.898 141.439C324.898 158.079 336.789 174.841 359.457 174.841C374.816 174.841 386.707 166.888 390.671 154.408H379.647C376.426 161.994 368.994 166.643 359.704 166.643C345.708 166.643 335.303 155.876 335.303 141.439C335.303 128.959 343.602 116.234 359.58 116.234C369.737 116.234 377.417 121.618 380.142 130.549H390.918C387.574 116.846 375.559 108.037 359.209 108.037Z" fill="var(--fill-0, #231F20)"/>
</g>
</g>
<defs>
<clipPath id="clip0_0_104">
<rect width="573" height="283" fill="white"/>
</clipPath>
</defs>
</svg>
