<svg width="41" height="21" viewBox="0 0 41 21" fill="none" xmlns="http://www.w3.org/2000/svg">
<path d="M8.62037 17C4.28704 17 2 13.7299 2 10.5C2 7.27006 4.26698 4 8.58025 4C11.9306 4 14.4383 6.08642 14.7994 9.17593L14.8596 9.73765H11.108L11.0278 9.31636C10.8071 8.11265 9.90432 7.39043 8.60031 7.39043C6.59413 7.39043 5.69136 8.99537 5.69136 10.5C5.69136 12.3056 6.93519 13.6096 8.64043 13.6096C9.80401 13.6096 10.7269 12.9877 11.0077 11.9645L11.108 11.6034H14.8997L14.7994 12.2052C14.2978 15.0741 11.7901 17 8.62037 17ZM8.58025 5.02315C4.74846 5.02315 3.02315 7.87191 3.02315 10.5C3.02315 13.2284 4.94907 15.9768 8.62037 15.9768C11.108 15.9768 13.0339 14.6728 13.6759 12.6265H11.8904C11.3688 13.8704 10.1651 14.6327 8.66049 14.6327C6.39352 14.6327 4.70833 12.8673 4.70833 10.5C4.70833 8.4537 6.05247 6.36728 8.64043 6.36728C10.2855 6.36728 11.5293 7.25 11.9707 8.71451H13.716C13.1744 6.46759 11.2284 5.02315 8.58025 5.02315Z" fill="#231F20"/>
<path d="M32.3113 17C27.978 17 25.6909 13.7299 25.6909 10.5C25.6909 7.27006 27.9579 4 32.2712 4C35.6215 4 38.1292 6.08642 38.4903 9.17593L38.5505 9.73765H34.7989L34.7187 9.31636C34.498 8.11265 33.5952 7.39043 32.2912 7.39043C30.2851 7.39043 29.3823 8.99537 29.3823 10.5C29.3823 12.3056 30.6261 13.6096 32.3314 13.6096C33.4949 13.6096 34.4178 12.9877 34.6986 11.9645L34.7989 11.6034H38.5906L38.4903 12.2052C37.9888 15.0741 35.5011 17 32.3113 17ZM32.2912 5.02315C28.4594 5.02315 26.7341 7.87191 26.7341 10.5C26.7341 13.2284 28.6601 15.9768 32.3314 15.9768C34.819 15.9768 36.7449 14.6728 37.3869 12.6265H35.6014C35.0798 13.8704 33.8761 14.6327 32.3715 14.6327C30.1045 14.6327 28.4193 12.8673 28.4193 10.5C28.4193 8.4537 29.7634 6.36728 32.3514 6.36728C33.9965 6.36728 35.2403 7.25 35.6817 8.71451H37.427C36.8854 6.46759 34.9394 5.02315 32.2912 5.02315Z" fill="#231F20"/>
</svg>
