<svg width="220" height="16" viewBox="0 0 220 16" fill="none" xmlns="http://www.w3.org/2000/svg">
<g clip-path="url(#clip0_14_9)">
<path d="M0.333893 8.637C0.557894 7.99301 0.891313 7.42067 1.33509 6.91954C1.77746 6.41841 2.33629 6.01795 3.01064 5.71772C3.68452 5.41795 4.47252 5.26784 5.37463 5.26784C6.16215 5.26784 6.85153 5.3794 7.44323 5.60298C8.03352 5.82611 8.53224 6.12407 8.93657 6.49686C9.34278 6.87011 9.65319 7.29233 9.86827 7.76444C10.0843 8.23609 10.2153 8.72861 10.2604 9.24018H8.23733C8.16173 8.6107 7.89546 8.08281 7.43666 7.65514C6.97832 7.22702 6.30632 7.01296 5.42018 7.01296C4.82848 7.01296 4.3213 7.11138 3.89725 7.30911C3.4732 7.50684 3.12099 7.77351 2.8397 8.11002C2.55982 8.44698 2.35319 8.83247 2.2217 9.26829C2.08786 9.70367 2.02212 10.1585 2.02212 10.6343C2.02212 11.1173 2.08786 11.5749 2.2217 12.0062C2.35319 12.4375 2.55982 12.8202 2.8397 13.1527C3.12099 13.4855 3.47648 13.7486 3.90805 13.9431C4.34056 14.1368 4.859 14.2343 5.46526 14.2343C6.30632 14.2343 6.94029 14.0529 7.3681 13.6905C7.79637 13.3286 8.0941 12.8434 8.26081 12.2366H10.2834C10.2078 12.7341 10.0538 13.2093 9.82272 13.6633C9.59167 14.1164 9.26999 14.5155 8.85721 14.8592C8.44443 15.2034 7.95181 15.4778 7.37937 15.6824C6.80739 15.8869 6.14759 15.9898 5.3967 15.9898C4.48003 15.9898 3.68452 15.8402 3.01064 15.54C2.33629 15.2402 1.77746 14.8415 1.33509 14.344C0.891313 13.8461 0.557894 13.2756 0.333893 12.632C0.111301 11.988 -0.000934601 11.3218 -0.000934601 10.6343C-0.000934601 9.94675 0.111301 9.28099 0.333893 8.637Z" fill="#231F20"/>
<path d="M24.3425 9.66875C24.3425 8.82702 24.064 8.15945 23.508 7.66557C22.9501 7.17169 22.2293 6.92453 21.3432 6.92453C20.5021 6.92453 19.7897 7.15718 19.2065 7.62158C18.6232 8.08643 18.3166 8.76852 18.2865 9.66875H24.3425ZM16.5593 8.47736C16.8007 7.82974 17.1421 7.26693 17.5812 6.78757C18.0207 6.30865 18.5551 5.93586 19.1834 5.66829C19.8127 5.40162 20.5171 5.26784 21.2967 5.26784C22.0241 5.26784 22.6947 5.38303 23.3084 5.61342C23.9218 5.8438 24.4491 6.16897 24.8877 6.58983C25.3282 7.01115 25.6724 7.50095 25.9218 8.06058C26.1721 8.62022 26.297 9.22249 26.297 9.86603C26.297 10.0121 26.2933 10.1912 26.2862 10.4034C26.2787 10.6161 26.2515 10.8647 26.2068 11.1504H18.263C18.263 11.5817 18.3255 11.9894 18.4509 12.3735C18.5758 12.7581 18.7664 13.096 19.0247 13.3885C19.2825 13.6814 19.6113 13.9132 20.0132 14.0855C20.4143 14.2574 20.8956 14.344 21.4563 14.344C22.2598 14.344 22.867 14.1826 23.2803 13.8601C23.6935 13.5386 23.9833 13.1622 24.1495 12.73H26.2068C26.1148 13.1622 25.941 13.5712 25.6832 13.9595C25.4259 14.3472 25.0976 14.6905 24.7008 14.9907C24.3021 15.2905 23.8292 15.5327 23.2803 15.7155C22.7304 15.8982 22.1227 15.9898 21.4563 15.9898C20.5692 15.9898 19.7967 15.8397 19.1379 15.5395C18.4795 15.2397 17.9319 14.8411 17.4966 14.344C17.0599 13.8461 16.7349 13.2715 16.5189 12.6202C16.3024 11.969 16.1944 11.2928 16.1944 10.5903C16.1944 9.82929 16.3156 9.12498 16.5593 8.47736Z" fill="#231F20"/>
<path d="M32.7461 8.637C32.9701 7.99301 33.3035 7.42067 33.7459 6.91954C34.1897 6.41841 34.7485 6.01795 35.4228 5.71772C36.0967 5.41795 36.8847 5.26784 37.7854 5.26784C38.5739 5.26784 39.2637 5.3794 39.854 5.60298C40.4457 5.82611 40.943 6.12407 41.3488 6.49686C41.7536 6.87011 42.0654 7.29233 42.2805 7.76444C42.4965 8.23609 42.6275 8.72861 42.6726 9.24018H40.6495C40.5739 8.6107 40.3077 8.08281 39.8489 7.65514C39.3905 7.22702 38.7185 7.01296 37.831 7.01296C37.2407 7.01296 36.733 7.11138 36.3095 7.30911C35.8854 7.50684 35.5318 7.77351 35.2519 8.11002C34.972 8.44698 34.7654 8.83247 34.6325 9.26829C34.5001 9.70367 34.4343 10.1585 34.4343 10.6343C34.4343 11.1173 34.5001 11.5749 34.6325 12.0062C34.7654 12.4375 34.972 12.8202 35.2519 13.1527C35.5318 13.4855 35.8887 13.7486 36.3203 13.9431C36.7514 14.1368 37.2712 14.2343 37.8775 14.2343C38.7185 14.2343 39.3525 14.0529 39.7803 13.6905C40.2086 13.3286 40.5054 12.8434 40.673 12.2366H42.6956C42.62 12.7341 42.466 13.2093 42.2349 13.6633C42.0039 14.1164 41.6822 14.5155 41.2689 14.8592C40.8566 15.2034 40.3635 15.4778 39.7916 15.6824C39.2196 15.8869 38.5584 15.9898 37.8089 15.9898C36.8922 15.9898 36.0967 15.8402 35.4228 15.54C34.7485 15.2402 34.1897 14.8415 33.7459 14.344C33.3035 13.8461 32.9701 13.2756 32.7461 12.632C32.5235 11.988 32.4113 11.3218 32.4113 10.6343C32.4113 9.94675 32.5235 9.28099 32.7461 8.637Z" fill="#231F20"/>
<path d="M49.9364 5.53132H51.9364V15.7372H49.9364V5.53132ZM49.7767 0.54855C50.0956 0.234264 50.4821 0.0773468 50.9362 0.0773468C51.3828 0.0773468 51.765 0.234264 52.0844 0.54855C52.4018 0.863289 52.561 1.23654 52.561 1.66829C52.561 2.10004 52.4018 2.46602 52.0844 2.76579C51.765 3.06556 51.3828 3.21613 50.9362 3.21613C50.4891 3.21613 50.1055 3.06556 49.7824 2.76579C49.4612 2.46602 49.3001 2.10004 49.3001 1.66829C49.3001 1.23654 49.4588 0.863289 49.7767 0.54855Z" fill="#231F20"/>
<path d="M61.9836 0.000267029H59.9605V15.7372H61.9836V0.000267029Z" fill="#231F20"/>
<path d="M70.0096 5.53132H72.0092V15.7372H70.0096V5.53132ZM69.8495 0.54855C70.1679 0.234264 70.5548 0.0773468 71.0094 0.0773468C71.4556 0.0773468 71.8378 0.234264 72.1571 0.54855C72.475 0.863289 72.6333 1.23654 72.6333 1.66829C72.6333 2.10004 72.475 2.46602 72.1571 2.76579C71.8378 3.06556 71.4556 3.21613 71.0094 3.21613C70.5619 3.21613 70.1782 3.06556 69.8551 2.76579C69.5339 2.46602 69.3724 2.10004 69.3724 1.66829C69.3724 1.23654 69.5316 0.863289 69.8495 0.54855Z" fill="#231F20"/>
<path d="M81.4257 12.0279C81.5967 12.4601 81.8362 12.8383 82.1466 13.1644C82.4584 13.4896 82.8289 13.749 83.2614 13.9436C83.693 14.1368 84.1818 14.2343 84.7271 14.2343C85.2723 14.2343 85.7621 14.1368 86.1988 13.9436C86.6341 13.749 87.007 13.4896 87.3183 13.1644C87.6287 12.8383 87.8687 12.4601 88.0396 12.0279C88.2092 11.5966 88.2951 11.1318 88.2951 10.6347C88.2951 10.1368 88.2092 9.67281 88.0396 9.24061C87.8687 8.80887 87.6287 8.42882 87.3183 8.09957C87.007 7.76986 86.6341 7.50682 86.1988 7.30954C85.7621 7.11136 85.2723 7.01295 84.7271 7.01295C84.1818 7.01295 83.693 7.11136 83.2614 7.30954C82.8289 7.50682 82.4584 7.76986 82.1466 8.09957C81.8362 8.42882 81.5967 8.81068 81.4257 9.24605C81.2557 9.68143 81.1703 10.144 81.1703 10.6347C81.1703 11.1318 81.2557 11.5966 81.4257 12.0279ZM79.568 8.58211C79.8328 7.93131 80.2057 7.35716 80.6875 6.85966C81.1675 6.36215 81.731 5.97213 82.3743 5.69004C83.0186 5.40886 83.7273 5.26827 84.4998 5.26827C85.4005 5.26827 86.1777 5.4583 86.8295 5.83879C87.4813 6.21884 87.9701 6.70183 88.2951 7.28732V5.53176H90.2947V15.7377H88.2951V13.9599C87.9701 14.5449 87.4813 15.0297 86.8295 15.4134C86.1777 15.798 85.393 15.9898 84.4763 15.9898C83.7043 15.9898 82.9966 15.8474 82.3523 15.5617C81.708 15.2764 81.1491 14.8873 80.6762 14.393C80.2024 13.8996 79.8328 13.3286 79.568 12.681C79.3027 12.0343 79.1702 11.3517 79.1702 10.6347C79.1702 9.91771 79.3027 9.23336 79.568 8.58211Z" fill="#231F20"/>
<path d="M107.327 8.637C107.551 7.99301 107.885 7.42067 108.327 6.91954C108.771 6.41841 109.33 6.01795 110.004 5.71772C110.678 5.41795 111.466 5.26784 112.366 5.26784C113.155 5.26784 113.845 5.3794 114.435 5.60298C115.027 5.82611 115.524 6.12407 115.93 6.49686C116.335 6.87011 116.646 7.29233 116.862 7.76444C117.078 8.23609 117.209 8.72861 117.254 9.24018H115.231C115.155 8.6107 114.889 8.08281 114.43 7.65514C113.972 7.22702 113.3 7.01296 112.412 7.01296C111.822 7.01296 111.315 7.11138 110.891 7.30911C110.466 7.50684 110.113 7.77351 109.833 8.11002C109.553 8.44698 109.346 8.83247 109.214 9.26829C109.081 9.70367 109.015 10.1585 109.015 10.6343C109.015 11.1173 109.081 11.5749 109.214 12.0062C109.346 12.4375 109.553 12.8202 109.833 13.1527C110.113 13.4855 110.47 13.7486 110.901 13.9431C111.333 14.1368 111.852 14.2343 112.459 14.2343C113.3 14.2343 113.934 14.0529 114.361 13.6905C114.79 13.3286 115.086 12.8434 115.254 12.2366H117.277C117.201 12.7341 117.047 13.2093 116.816 13.6633C116.585 14.1164 116.263 14.5155 115.85 14.8592C115.438 15.2034 114.945 15.4778 114.373 15.6824C113.801 15.8869 113.139 15.9898 112.39 15.9898C111.473 15.9898 110.678 15.8402 110.004 15.54C109.33 15.2402 108.771 14.8415 108.327 14.344C107.885 13.8461 107.551 13.2756 107.327 12.632C107.104 11.988 106.992 11.3218 106.992 10.6343C106.992 9.94675 107.104 9.28099 107.327 8.637Z" fill="#231F20"/>
<path d="M131.335 9.66875C131.335 8.82702 131.056 8.15945 130.5 7.66557C129.942 7.17169 129.221 6.92453 128.335 6.92453C127.494 6.92453 126.782 7.15718 126.198 7.62158C125.616 8.08643 125.309 8.76852 125.278 9.66875H131.335ZM123.551 8.47736C123.793 7.82974 124.134 7.26693 124.574 6.78757C125.013 6.30865 125.547 5.93586 126.175 5.66829C126.805 5.40162 127.509 5.26784 128.29 5.26784C129.017 5.26784 129.687 5.38303 130.301 5.61342C130.914 5.8438 131.441 6.16897 131.88 6.58983C132.32 7.01115 132.664 7.50095 132.915 8.06058C133.164 8.62022 133.289 9.22249 133.289 9.86603C133.289 10.0121 133.285 10.1912 133.278 10.4034C133.271 10.6161 133.244 10.8647 133.199 11.1504H125.255C125.255 11.5817 125.318 11.9894 125.443 12.3735C125.568 12.7581 125.76 13.096 126.017 13.3885C126.274 13.6814 126.605 13.9132 127.005 14.0855C127.408 14.2574 127.887 14.344 128.449 14.344C129.252 14.344 129.859 14.1826 130.272 13.8601C130.685 13.5386 130.975 13.1622 131.141 12.73H133.199C133.108 13.1622 132.933 13.5712 132.675 13.9595C132.419 14.3472 132.09 14.6905 131.693 14.9907C131.295 15.2905 130.821 15.5327 130.272 15.7155C129.724 15.8982 129.115 15.9898 128.449 15.9898C127.563 15.9898 126.789 15.8397 126.13 15.5395C125.471 15.2397 124.924 14.8411 124.488 14.344C124.052 13.8461 123.727 13.2715 123.511 12.6202C123.296 11.969 123.187 11.2928 123.187 10.5903C123.187 9.82929 123.309 9.12498 123.551 8.47736Z" fill="#231F20"/>
<path d="M142.502 12.028C142.671 12.4602 142.912 12.842 143.223 13.1749C143.533 13.5078 143.905 13.7676 144.336 13.954C144.769 14.1409 145.257 14.2343 145.803 14.2343C146.348 14.2343 146.838 14.1368 147.274 13.9436C147.71 13.749 148.083 13.486 148.394 13.1527C148.704 12.8202 148.941 12.4375 149.104 12.0062C149.267 11.5749 149.348 11.1173 149.348 10.6348C149.348 10.1518 149.267 9.69099 149.104 9.25154C148.941 8.81253 148.704 8.42886 148.394 8.09961C148.083 7.7699 147.71 7.50686 147.274 7.30959C146.838 7.1114 146.348 7.01299 145.803 7.01299C145.257 7.01299 144.769 7.1114 144.336 7.30959C143.905 7.50686 143.533 7.76673 143.223 8.08827C142.912 8.41027 142.671 8.79258 142.502 9.23521C142.331 9.67784 142.246 10.1441 142.246 10.6348C142.246 11.1318 142.331 11.5967 142.502 12.028ZM140.223 0.000282288H142.246V7.28736C142.571 6.70188 143.057 6.21888 143.701 5.83884C144.344 5.45834 145.125 5.26831 146.042 5.26831C146.799 5.26831 147.503 5.4089 148.155 5.69008C148.806 5.97217 149.373 6.36219 149.854 6.8597C150.334 7.3572 150.709 7.93135 150.974 8.58215C151.238 9.2334 151.371 9.91775 151.371 10.6348C151.371 11.3518 151.238 12.0343 150.974 12.681C150.709 13.3286 150.339 13.8955 149.865 14.3822C149.392 14.8688 148.83 15.2583 148.178 15.5513C147.527 15.8438 146.814 15.9899 146.042 15.9899C145.125 15.9899 144.344 15.798 143.701 15.4134C143.057 15.0298 142.571 14.545 142.246 13.9599V15.7377H140.223V0.000282288Z" fill="#231F20"/>
<path d="M159.549 12.0279C159.719 12.4601 159.96 12.8383 160.27 13.1644C160.58 13.4896 160.952 13.749 161.384 13.9436C161.815 14.1368 162.304 14.2343 162.849 14.2343C163.396 14.2343 163.885 14.1368 164.321 13.9436C164.757 13.749 165.13 13.4896 165.441 13.1644C165.751 12.8383 165.992 12.4601 166.162 12.0279C166.332 11.5966 166.418 11.1318 166.418 10.6347C166.418 10.1368 166.332 9.67281 166.162 9.24061C165.992 8.80887 165.751 8.42882 165.441 8.09957C165.13 7.76986 164.757 7.50682 164.321 7.30954C163.885 7.11136 163.396 7.01295 162.849 7.01295C162.304 7.01295 161.815 7.11136 161.384 7.30954C160.952 7.50682 160.58 7.76986 160.27 8.09957C159.96 8.42882 159.719 8.81068 159.549 9.24605C159.378 9.68143 159.292 10.144 159.292 10.6347C159.292 11.1318 159.378 11.5966 159.549 12.0279ZM157.691 8.58211C157.956 7.93131 158.329 7.35716 158.809 6.85966C159.291 6.36215 159.853 5.97213 160.498 5.69004C161.142 5.40886 161.849 5.26827 162.622 5.26827C163.524 5.26827 164.3 5.4583 164.952 5.83879C165.603 6.21884 166.092 6.70183 166.418 7.28732V5.53176H168.418V15.7377H166.418V13.9599C166.092 14.5449 165.603 15.0297 164.952 15.4134C164.3 15.798 163.516 15.9898 162.6 15.9898C161.828 15.9898 161.118 15.8474 160.475 15.5617C159.83 15.2764 159.272 14.8873 158.798 14.393C158.326 13.8996 157.956 13.3286 157.691 12.681C157.426 12.0343 157.293 11.3517 157.293 10.6347C157.293 9.91771 157.426 9.23336 157.691 8.58211Z" fill="#231F20"/>
<path d="M178.067 0.000267029H176.044V15.7372H178.067V0.000267029Z" fill="#231F20"/>
<path d="M187.717 0.000267029H185.694V15.7372H187.717V0.000267029Z" fill="#231F20"/>
<path d="M196.736 12.0279C196.906 12.4601 197.147 12.8383 197.458 13.1644C197.768 13.4896 198.14 13.749 198.571 13.9436C199.003 14.1368 199.492 14.2343 200.037 14.2343C200.583 14.2343 201.073 14.1368 201.509 13.9436C201.945 13.749 202.318 13.4896 202.628 13.1644C202.939 12.8383 203.179 12.4601 203.349 12.0279C203.52 11.5966 203.606 11.1318 203.606 10.6347C203.606 10.1368 203.52 9.67281 203.349 9.24061C203.179 8.80887 202.939 8.42882 202.628 8.09957C202.318 7.76986 201.945 7.50682 201.509 7.30954C201.073 7.11136 200.583 7.01295 200.037 7.01295C199.492 7.01295 199.003 7.11136 198.571 7.30954C198.14 7.50682 197.768 7.76986 197.458 8.09957C197.147 8.42882 196.906 8.81068 196.736 9.24605C196.566 9.68143 196.48 10.144 196.48 10.6347C196.48 11.1318 196.566 11.5966 196.736 12.0279ZM194.879 8.58211C195.144 7.93131 195.516 7.35716 195.997 6.85966C196.479 6.36215 197.064 5.97213 197.754 5.69004C198.443 5.40886 199.204 5.26827 200.037 5.26827C200.877 5.26827 201.639 5.40886 202.321 5.69004C203.003 5.97213 203.589 6.36215 204.076 6.85966C204.565 7.35716 204.943 7.93131 205.207 8.58211C205.473 9.23336 205.606 9.91771 205.606 10.6347C205.606 11.3517 205.473 12.0343 205.207 12.681C204.943 13.3286 204.569 13.8996 204.089 14.393C203.607 14.8873 203.022 15.2764 202.332 15.5617C201.643 15.8474 200.877 15.9898 200.037 15.9898C199.181 15.9898 198.413 15.8474 197.736 15.5617C197.058 15.2764 196.479 14.8873 195.997 14.393C195.516 13.8996 195.144 13.3286 194.879 12.681C194.613 12.0343 194.48 11.3517 194.48 10.6347C194.48 9.91771 194.613 9.23336 194.879 8.58211Z" fill="#231F20"/>
<path d="M213.459 12.3023C213.459 13.0778 213.696 13.6265 214.169 13.9485C214.643 14.2705 215.244 14.4311 215.971 14.4311C216.606 14.4311 217.116 14.3159 217.499 14.086C217.881 13.8551 218.073 13.4909 218.073 12.9939C218.073 12.7231 218.011 12.505 217.885 12.3408C217.76 12.1762 217.561 12.0293 217.288 11.9014C217.015 11.7739 216.666 11.651 216.237 11.5345C215.809 11.417 215.303 11.2596 214.72 11.0624C214.334 10.9454 213.969 10.8157 213.624 10.6723C213.279 10.5299 212.976 10.3485 212.714 10.1295C212.453 9.91044 212.245 9.65012 212.09 9.3499C211.935 9.05012 211.856 8.68414 211.856 8.25284C211.856 7.74037 211.962 7.29774 212.169 6.92495C212.378 6.55171 212.659 6.24105 213.016 5.99252C213.372 5.74309 213.779 5.56032 214.237 5.44332C214.696 5.32631 215.182 5.26781 215.698 5.26781C216.304 5.26781 216.863 5.35035 217.374 5.51452C217.885 5.67915 218.326 5.91543 218.698 6.22246C219.069 6.52994 219.359 6.89139 219.567 7.30908C219.776 7.72631 219.88 8.19117 219.88 8.70273H217.925C217.925 8.10273 217.743 7.64196 217.38 7.32042C217.015 6.99797 216.485 6.83697 215.788 6.83697C215.213 6.83697 214.74 6.95262 214.368 7.18255C213.997 7.41384 213.811 7.75534 213.811 8.20931C213.811 8.46509 213.878 8.67552 214.01 8.84015C214.143 9.00477 214.34 9.14718 214.602 9.26826C214.862 9.3889 215.178 9.50228 215.55 9.60795L216.857 9.98709C217.228 10.1036 217.605 10.2333 217.988 10.3762C218.37 10.5191 218.707 10.6982 218.998 10.9141C219.29 11.1299 219.529 11.3989 219.714 11.7209C219.9 12.0429 219.993 12.4447 219.993 12.9281C219.993 13.4401 219.889 13.8864 219.68 14.2665C219.473 14.6474 219.186 14.9653 218.822 15.2216C218.459 15.4778 218.029 15.6696 217.533 15.7975C217.037 15.9254 216.508 15.9898 215.948 15.9898C215.327 15.9898 214.744 15.915 214.203 15.7644C213.662 15.6148 213.189 15.3862 212.783 15.0787C212.378 14.7717 212.059 14.3857 211.828 13.9209C211.597 13.4569 211.482 12.9163 211.482 12.3023H213.459Z" fill="#231F20"/>
</g>
<defs>
<clipPath id="clip0_14_9">
<rect width="220" height="16" fill="white"/>
</clipPath>
</defs>
</svg>
