<svg width="180" height="180" viewBox="0 0 180 180" fill="none" xmlns="http://www.w3.org/2000/svg">
<path d="M91.9829 165C41.5941 165 15 127.269 15 90C15 52.7315 41.3608 15 91.5163 15C130.474 15 159.635 39.0741 163.834 74.7222L164.533 81.2037H120.91L119.977 76.3426C117.411 62.4537 106.913 54.1204 91.7496 54.1204C68.4215 54.1204 57.9238 72.6389 57.9238 90C57.9238 110.833 72.3873 125.88 92.2162 125.88C105.747 125.88 116.477 118.704 119.743 106.898L120.91 102.731H165L163.834 109.676C158.002 142.778 129.075 165 91.9829 165ZM91.7496 26.8056C47.1928 26.8056 27.1306 59.6759 27.1306 90C27.1306 121.481 49.5257 153.194 92.2162 153.194C121.143 153.194 143.538 138.148 151.003 114.537H130.241C124.176 128.889 110.179 137.685 92.6827 137.685C66.3219 137.685 46.7263 117.315 46.7263 90C46.7263 66.3889 62.3561 42.3148 92.4494 42.3148C111.579 42.3148 126.042 52.5 131.174 69.3981H151.47C145.171 43.4722 122.543 26.8056 91.7496 26.8056Z" fill="white"/>
</svg>
