<svg preserveAspectRatio="none" width="100%" height="100%" overflow="visible" style="display: block;" viewBox="0 0 269 253" fill="none" xmlns="http://www.w3.org/2000/svg">
<g id="Draw-logo 1">
<path id="Vector" d="M140.658 75.0752C140.658 75.0752 85.6278 41.9851 107.122 26.2214C116.117 19.6236 145.815 36.7359 127.585 61.6696C122.31 68.8851 82.6323 66.3796 82.6323 66.3796L116.625 82.7758L85.3321 103.798C85.3321 103.798 175.318 106.158 148.967 93.2147C137.038 87.3559 132.166 116.254 166.866 114.39C166.866 114.39 139.385 123.029 124.144 144.859" stroke="var(--stroke-0, black)" stroke-width="5.95517" stroke-miterlimit="1.5" stroke-linecap="round" stroke-linejoin="round"/>
<path id="Vector_2" d="M152.036 48.2637L170.304 75.0749" stroke="var(--stroke-0, black)" stroke-width="5.95517" stroke-miterlimit="1.5" stroke-linecap="round" stroke-linejoin="round"/>
<path id="Vector_3" d="M166.792 13.4644L140.658 75.0751L205.655 77.5081" stroke="var(--stroke-0, black)" stroke-width="5.95517" stroke-miterlimit="1.5" stroke-linecap="round" stroke-linejoin="round"/>
<path id="Vector_4" d="M61.4206 75.0743C61.4206 114.97 93.7085 147.312 133.538 147.312C173.367 147.312 205.655 114.97 205.655 75.0743C205.655 35.1784 173.367 2.83643 133.538 2.83643C93.7085 2.83643 61.4206 35.1784 61.4206 75.0743Z" stroke="var(--stroke-0, black)" stroke-width="5.67301" stroke-miterlimit="1.5" stroke-linecap="round" stroke-linejoin="round"/>
<path id="Vector_5" d="M5.5694 231.11V170.684H26.8839C32.886 170.684 38.0087 171.871 42.252 174.244C46.5233 176.589 49.7896 179.995 52.0508 184.461C54.34 188.928 55.4846 194.344 55.4846 200.709V200.793C55.4846 207.158 54.354 212.615 52.0927 217.166C49.8314 221.688 46.5652 225.15 42.2939 227.551C38.0506 229.924 32.9139 231.11 26.8839 231.11H5.5694ZM14.9494 222.987H26.0045C30.2757 222.987 33.891 222.135 36.8501 220.432C39.8093 218.729 42.0566 216.231 43.592 212.937C45.1275 209.642 45.8952 205.622 45.8952 200.876V200.793C45.8952 196.075 45.1135 192.083 43.5502 188.816C42.0147 185.522 39.7674 183.038 36.8083 181.363C33.877 179.66 30.2757 178.808 26.0045 178.808H14.9494V222.987ZM73.0219 231.11V170.684H96.5139C100.618 170.684 104.177 171.438 107.192 172.946C110.207 174.453 112.524 176.589 114.143 179.353C115.79 182.116 116.614 185.397 116.614 189.193V189.277C116.614 193.381 115.567 196.968 113.473 200.039C111.407 203.11 108.56 205.259 104.931 206.488L118.456 231.11H107.611L95.2995 207.953C95.1878 207.953 95.0901 207.953 95.0064 207.953C94.9505 207.953 94.8668 207.953 94.7551 207.953H82.4019V231.11H73.0219ZM82.4019 200.206H95.5926C99.1939 200.206 101.986 199.271 103.968 197.401C105.95 195.503 106.941 192.822 106.941 189.361V189.277C106.941 185.955 105.894 183.345 103.8 181.446C101.734 179.52 98.9008 178.557 95.2995 178.557H82.4019V200.206ZM129.796 231.11L151.781 170.684H159.402V180.693H156.764L139.679 231.11H129.796ZM140.474 214.779L143.196 207.242H170.499L173.221 214.779H140.474ZM174.016 231.11L156.973 180.693V170.684H161.956L183.899 231.11H174.016ZM206.168 231.11L189.879 170.684H199.678L210.9 218.003H211.109L223.84 170.684H232.759L245.489 218.003H245.698L256.921 170.684H266.72L250.43 231.11H241.385L228.404 185.592H228.195L215.213 231.11H206.168Z" fill="var(--fill-0, black)"/>
</g>
</svg>
