<svg preserveAspectRatio="none" width="100%" height="100%" overflow="visible" style="display: block;" viewBox="0 0 49.1326 11.9326" fill="none" xmlns="http://www.w3.org/2000/svg">
<path id="Vector" d="M4.38845 11.9326C3.53073 11.9326 2.78355 11.7985 2.14693 11.5303C1.51032 11.2569 1.00768 10.8784 0.63946 10.3948C0.271019 9.91091 0.0606345 9.35111 0.00787508 8.71477L0 8.6124H1.74434L1.75223 8.69903C1.78922 9.04072 1.9232 9.33777 2.15482 9.59021C2.39169 9.84264 2.70737 10.0397 3.10186 10.1817C3.50183 10.3237 3.95696 10.3948 4.46748 10.3948C4.94625 10.3948 5.37249 10.3184 5.74596 10.166C6.11966 10.0135 6.41169 9.80327 6.62208 9.53508C6.83793 9.26689 6.94564 8.95933 6.94564 8.6124V8.6043C6.94564 8.16811 6.77992 7.80521 6.44847 7.51603C6.11703 7.22684 5.57499 7.00086 4.82256 6.83767L3.5756 6.57759C2.42322 6.3304 1.58388 5.93862 1.05782 5.40246C0.531535 4.86084 0.268396 4.16937 0.268396 3.32828V3.3204C0.27365 2.66306 0.44988 2.08467 0.797304 1.58527C1.14976 1.08586 1.63642 0.696704 2.25749 0.418017C2.87835 0.139329 3.59136 0 4.39632 0C5.20151 0 5.9038 0.139329 6.50364 0.418017C7.10895 0.691454 7.5851 1.06464 7.9323 1.53802C8.28498 2.01118 8.48223 2.54472 8.52426 3.13884L8.53215 3.24143H6.80356L6.78779 3.13884C6.74051 2.82865 6.61157 2.55259 6.40119 2.31087C6.19584 2.06893 5.91956 1.87972 5.57236 1.743C5.23041 1.60103 4.83044 1.53277 4.37268 1.53802C3.93069 1.53802 3.53598 1.60628 3.18877 1.743C2.84157 1.87447 2.56529 2.06631 2.35994 2.31874C2.16007 2.57118 2.06002 2.87611 2.06002 3.23355V3.24143C2.06002 3.66209 2.22049 4.01428 2.54165 4.29821C2.86784 4.5769 3.39652 4.79522 4.12793 4.95293L5.37511 5.22899C6.16957 5.39721 6.81429 5.62056 7.30883 5.89925C7.80337 6.17794 8.16393 6.52225 8.39007 6.9324C8.62168 7.33731 8.73749 7.82096 8.73749 8.38359V8.39146C8.73749 9.11706 8.55841 9.74531 8.2007 10.2764C7.84824 10.8021 7.3456 11.2096 6.69323 11.4988C6.04063 11.788 5.27244 11.9326 4.38845 11.9326ZM11.0657 11.6565V0.276058H18.1773V1.806H12.8337V5.40246H17.7272V6.89303H12.8337V11.6565H11.0657ZM25.7622 7.76847V6.28577H28.8719C29.6401 6.28577 30.2347 6.08846 30.6557 5.69427C31.0819 5.29462 31.2949 4.74248 31.2949 4.03811V4.02215C31.2949 3.30728 31.0819 2.75252 30.6557 2.35811C30.2347 1.96371 29.6401 1.76661 28.8719 1.76661H25.7622V0.276058H29.3139C30.0611 0.276058 30.7161 0.433779 31.2791 0.749216C31.8474 1.0594 32.2921 1.4958 32.613 2.05842C32.9339 2.6158 33.0946 3.26506 33.0946 4.0064V4.02215C33.0946 4.7635 32.9339 5.41821 32.613 5.98608C32.2921 6.54871 31.8474 6.98775 31.2791 7.30319C30.7161 7.61338 30.0611 7.76847 29.3139 7.76847H25.7622ZM24.8782 11.6565V0.276058H26.6462V11.6565H24.8782ZM35.1783 11.6565V3.09159H36.8909V4.38506H37.0251C37.1777 3.92766 37.4461 3.57262 37.8303 3.3204C38.2195 3.06797 38.6983 2.94174 39.2666 2.94174C39.4087 2.94174 39.5481 2.94962 39.685 2.96537C39.8218 2.98112 39.9323 2.99949 40.0164 3.02071V4.5979C39.8638 4.5664 39.7112 4.54277 39.5586 4.52702C39.4113 4.51127 39.2561 4.50341 39.093 4.50341C38.6563 4.50341 38.2723 4.5874 37.9406 4.75562C37.6144 4.92405 37.3565 5.16052 37.1672 5.46546C36.9831 5.76515 36.8909 6.12281 36.8909 6.538V11.6565H35.1783ZM45.0758 11.8221C44.2391 11.8221 43.5156 11.6434 42.9053 11.286C42.3002 10.9283 41.8345 10.4184 41.5081 9.7558C41.1819 9.08817 41.0188 8.29674 41.0188 7.38193V7.36617C41.0188 6.44611 41.1819 5.65468 41.5081 4.9923C41.8398 4.32993 42.308 3.8198 42.9131 3.46236C43.5235 3.10471 44.2444 2.92598 45.0758 2.92598C45.9123 2.92598 46.6332 3.10471 47.2383 3.46236C47.8434 3.81455 48.3093 4.32446 48.6355 4.9923C48.9669 5.65468 49.1326 6.44611 49.1326 7.36617V7.38193C49.1326 8.29674 48.9669 9.08817 48.6355 9.7558C48.3093 10.4184 47.8434 10.9283 47.2383 11.286C46.6385 11.6434 45.9176 11.8221 45.0758 11.8221ZM45.0758 10.3869C45.5651 10.3869 45.9808 10.2686 46.3228 10.0319C46.6648 9.79015 46.9253 9.44561 47.1041 8.9987C47.2832 8.5518 47.3725 8.0128 47.3725 7.38193V7.36617C47.3725 6.73005 47.2832 6.18843 47.1041 5.74152C46.9253 5.29461 46.6648 4.95293 46.3228 4.71625C45.9808 4.47431 45.5651 4.35355 45.0758 4.35355C44.5863 4.35355 44.1708 4.47431 43.8287 4.71625C43.4867 4.95293 43.2236 5.29461 43.0395 5.74152C42.8606 6.18843 42.7711 6.73005 42.7711 7.36617V7.38193C42.7711 8.0128 42.8606 8.5518 43.0395 8.9987C43.2236 9.44561 43.4867 9.79015 43.8287 10.0319C44.1708 10.2686 44.5863 10.3869 45.0758 10.3869Z" fill="var(--fill-0, #061600)"/>
</svg>
