<svg preserveAspectRatio="none" width="100%" height="100%" overflow="visible" style="display: block;" viewBox="0 0 165.935 78.9937" fill="none" xmlns="http://www.w3.org/2000/svg">
<path id="Vector" d="M1.08787 13.2022V0.552349H2.92147L7.25537 11.107H7.3957L11.7296 0.552349H13.5633V13.2022H12.0893V3.54156H11.3174L13.0896 0.903L7.99225 13.2022H6.65881L1.57041 0.903L3.33381 3.54156H2.56177V13.2022H1.08787ZM19.1956 13.3687C18.5991 13.3687 18.061 13.2547 17.5813 13.0268C17.1076 12.7988 16.7304 12.4747 16.4497 12.0538C16.1748 11.6329 16.0373 11.1361 16.0373 10.5634V10.5459C16.0373 9.98484 16.1719 9.50578 16.441 9.10831C16.71 8.70494 17.1019 8.3895 17.6166 8.16156C18.1313 7.93362 18.7541 7.79909 19.4853 7.75819L22.9593 7.54797V8.76641L19.6694 8.97685C18.95 9.01776 18.4237 9.16672 18.0903 9.42397C17.7628 9.681 17.5988 10.0433 17.5988 10.5109V10.5284C17.5988 11.0077 17.7803 11.3818 18.1429 11.6506C18.5056 11.9136 18.9616 12.045 19.5115 12.045C20.0321 12.045 20.4941 11.9427 20.8977 11.7381C21.3012 11.5279 21.6171 11.2444 21.8452 10.8878C22.079 10.5313 22.1961 10.1281 22.1961 9.67816V6.73269C22.1961 6.14819 22.0177 5.70391 21.6609 5.40007C21.31 5.09032 20.7806 4.93544 20.0731 4.93544C19.5056 4.93544 19.0406 5.03781 18.6781 5.24234C18.3154 5.44097 18.0728 5.72447 17.9498 6.09263L17.941 6.11887H16.4145L16.4233 6.06638C16.5051 5.5696 16.71 5.13712 17.0375 4.76897C17.371 4.39491 17.8007 4.10551 18.3272 3.90097C18.8535 3.69076 19.4531 3.58553 20.1256 3.58553C20.8977 3.58553 21.5499 3.7111 22.0821 3.96244C22.6202 4.21378 23.0265 4.57603 23.3015 5.04941C23.5823 5.51688 23.7227 6.07797 23.7227 6.73269V13.2022H22.1961V11.8083H22.0558C21.8568 12.1415 21.614 12.425 21.3275 12.6586C21.0468 12.8925 20.7281 13.0707 20.3712 13.1935C20.0144 13.3103 19.6225 13.3687 19.1956 13.3687ZM26.6001 13.2022V0H28.1267V13.2022H26.6001ZM32.5571 13.2022L28.8638 8.57347L29.9866 7.60047L34.4786 13.2022H32.5571ZM27.9338 9.80088L27.8635 7.8809H28.2672L32.3553 3.75201H34.2065L29.7147 8.08259L29.3463 8.442L27.9338 9.80088ZM39.6897 13.3687C38.7891 13.3687 38.0141 13.1701 37.3648 12.7726C36.7214 12.3751 36.2242 11.8142 35.8733 11.0895C35.5283 10.3589 35.3558 9.49988 35.3558 8.51222V8.50347C35.3558 7.52741 35.5283 6.67122 35.8733 5.93491C36.2242 5.19838 36.7186 4.62284 37.3561 4.20787C37.9936 3.7929 38.7394 3.58553 39.5932 3.58553C40.4531 3.58553 41.19 3.78416 41.8041 4.18163C42.424 4.57888 42.8978 5.13428 43.2253 5.84719C43.5587 6.55441 43.7255 7.37844 43.7255 8.31928V8.91537H36.1454V7.69694H42.9446L42.19 8.81016V8.20531C42.19 7.46309 42.079 6.85235 41.8568 6.37307C41.6344 5.89401 41.3275 5.53744 40.9356 5.30359C40.5437 5.06406 40.0934 4.94419 39.5844 4.94419C39.0757 4.94419 38.6194 5.06997 38.2158 5.3211C37.8182 5.56676 37.5023 5.93185 37.2683 6.41704C37.0345 6.902 36.9173 7.49809 36.9173 8.20531V8.81016C36.9173 9.48238 37.0314 10.0579 37.2595 10.5372C37.4876 11.0106 37.8123 11.3759 38.2335 11.6329C38.6545 11.8843 39.1516 12.01 39.7248 12.01C40.1519 12.01 40.5232 11.9514 40.8391 11.8346C41.155 11.7178 41.415 11.5688 41.6199 11.3875C41.8246 11.2063 41.9678 11.0224 42.0497 10.8353L42.0849 10.7564H43.6115L43.5937 10.8266C43.5118 11.1479 43.3656 11.4605 43.1552 11.7646C42.9505 12.0625 42.6843 12.3342 42.3568 12.5797C42.0293 12.8194 41.6403 13.0123 41.19 13.1583C40.7454 13.2987 40.2454 13.3687 39.6897 13.3687ZM54.3936 13.3687C53.6918 13.3687 53.0718 13.2635 52.5337 13.0533C51.9956 12.8369 51.5628 12.5359 51.2353 12.1503C50.9135 11.7646 50.7235 11.3116 50.665 10.7914H52.2266C52.3553 11.1829 52.6068 11.4986 52.9812 11.7381C53.3553 11.9779 53.8437 12.0975 54.4462 12.0975C54.8731 12.0975 55.2474 12.0363 55.5692 11.9136C55.8967 11.7849 56.154 11.6126 56.3411 11.3962C56.5283 11.1742 56.622 10.92 56.622 10.6337V10.6162C56.622 10.2946 56.4933 10.0229 56.2358 9.80088C55.9786 9.57294 55.5574 9.38875 54.9727 9.24853L53.5075 8.89788C52.9168 8.75766 52.4313 8.57653 52.0512 8.35428C51.671 8.12634 51.3903 7.84875 51.2088 7.5215C51.0275 7.18834 50.9369 6.79678 50.9369 6.34682V6.33806C50.9369 5.81219 51.0891 5.34166 51.3931 4.92669C51.7031 4.51172 52.1243 4.18447 52.6565 3.94494C53.1887 3.70519 53.7881 3.58553 54.4549 3.58553C55.1159 3.58553 55.7008 3.69076 56.2096 3.90097C56.7243 4.10551 57.1367 4.39775 57.4467 4.77772C57.7624 5.15747 57.9555 5.60459 58.0257 6.11887H56.5255C56.4261 5.74481 56.198 5.44097 55.8411 5.20735C55.4843 4.9735 55.0193 4.85669 54.4462 4.85669C54.0718 4.85669 53.7384 4.91794 53.4459 5.04066C53.1537 5.15747 52.9225 5.3211 52.7531 5.53154C52.5834 5.74197 52.4985 5.98741 52.4985 6.26807V6.28557C52.4985 6.496 52.5541 6.68282 52.6653 6.84666C52.7763 7.01029 52.949 7.15335 53.1828 7.27607C53.4168 7.39879 53.7181 7.50685 54.0865 7.60047L55.5428 7.95112C56.4318 8.16725 57.0927 8.477 57.5255 8.88038C57.9642 9.28353 58.1836 9.82429 58.1836 10.5022V10.5197C58.1836 11.0808 58.017 11.5776 57.6836 12.01C57.3501 12.4366 56.8968 12.7698 56.3236 13.0093C55.7564 13.249 55.113 13.3687 54.3936 13.3687ZM63.7194 13.3687C63.0059 13.3687 62.4063 13.2344 61.921 12.9655C61.4354 12.6908 61.07 12.2933 60.8242 11.7733C60.5845 11.2472 60.4645 10.6131 60.4645 9.87088V3.75201H61.991V9.50272C61.991 10.3502 62.155 10.9815 62.4825 11.3962C62.8157 11.8112 63.3597 12.0188 64.1143 12.0188C64.5294 12.0188 64.895 11.9573 65.2109 11.8346C65.5325 11.7119 65.8015 11.5367 66.018 11.3087C66.2343 11.0749 66.3952 10.7944 66.5005 10.467C66.6117 10.134 66.6671 9.75997 66.6671 9.345V3.75201H68.1936V13.2022H66.6671V11.7908H66.5268C66.3749 12.124 66.1671 12.4103 65.904 12.6499C65.6408 12.8837 65.3249 13.062 64.9565 13.1847C64.5937 13.3074 64.1815 13.3687 63.7194 13.3687ZM71.0451 13.2022V3.75201H72.5716V5.15462H72.7119C72.8932 4.65784 73.2003 4.27219 73.6331 3.99744C74.0659 3.72269 74.601 3.58553 75.2387 3.58553C75.3847 3.58553 75.5281 3.59428 75.6684 3.61178C75.8146 3.62338 75.9259 3.63519 76.0018 3.64678V5.12838C75.844 5.09907 75.689 5.07872 75.5368 5.06691C75.3906 5.04941 75.2328 5.04066 75.0631 5.04066C74.5778 5.04066 74.1478 5.13712 73.7734 5.33006C73.3991 5.52278 73.1038 5.79163 72.8873 6.13638C72.6769 6.48135 72.5716 6.8845 72.5716 7.34628V13.2022H71.0451ZM81.4851 13.3687C80.5844 13.3687 79.8095 13.1701 79.1602 12.7726C78.5168 12.3751 78.0196 11.8142 77.6687 11.0895C77.3236 10.3589 77.1511 9.49988 77.1511 8.51222V8.50347C77.1511 7.52741 77.3236 6.67122 77.6687 5.93491C78.0196 5.19838 78.5139 4.62284 79.1514 4.20787C79.7889 3.7929 80.5345 3.58553 81.3885 3.58553C82.2482 3.58553 82.9853 3.78416 83.5994 4.18163C84.2194 4.57888 84.6931 5.13428 85.0206 5.84719C85.354 6.55441 85.5206 7.37844 85.5206 8.31928V8.91537H77.9408V7.69694H84.74L83.9854 8.81016V8.20531C83.9854 7.46309 83.8744 6.85235 83.6519 6.37307C83.4297 5.89401 83.1228 5.53744 82.7309 5.30359C82.3389 5.06406 81.8886 4.94419 81.3798 4.94419C80.871 4.94419 80.4148 5.06997 80.0111 5.3211C79.6135 5.56676 79.2976 5.93185 79.0636 6.41704C78.8298 6.902 78.7127 7.49809 78.7127 8.20531V8.81016C78.7127 9.48238 78.8267 10.0579 79.0549 10.5372C79.283 11.0106 79.6076 11.3759 80.0286 11.6329C80.4498 11.8843 80.947 12.01 81.5201 12.01C81.947 12.01 82.3185 11.9514 82.6344 11.8346C82.9501 11.7178 83.2104 11.5688 83.4151 11.3875C83.6198 11.2063 83.7632 11.0224 83.845 10.8353L83.8801 10.7564H85.4066L85.3891 10.8266C85.3072 11.1479 85.161 11.4605 84.9504 11.7646C84.7457 12.0625 84.4797 12.3342 84.1522 12.5797C83.8247 12.8194 83.4356 13.0123 82.9853 13.1583C82.5407 13.2987 82.0407 13.3687 81.4851 13.3687ZM93.75 16.5158C93.6504 16.5158 93.5394 16.5099 93.4166 16.4983C93.2938 16.4924 93.1797 16.4808 93.0744 16.4633V15.2097C93.1679 15.2272 93.2704 15.239 93.3814 15.2447C93.4926 15.2506 93.6007 15.2534 93.706 15.2534C94.1388 15.2534 94.4928 15.1425 94.7675 14.9203C95.0484 14.6983 95.2735 14.3154 95.4431 13.7721L95.6187 13.211L92.1182 3.75201H93.75L96.6625 12.4834L96.0572 11.5279H96.7766L96.1713 12.4834L99.0752 3.75201H100.681L96.9872 13.7808C96.7299 14.4878 96.4578 15.0402 96.1713 15.4376C95.8847 15.8351 95.5484 16.1127 95.1625 16.2704C94.7822 16.434 94.3113 16.5158 93.75 16.5158ZM106.234 13.3687C105.339 13.3687 104.564 13.1729 103.909 12.7813C103.26 12.3839 102.757 11.8199 102.4 11.0895C102.049 10.3589 101.874 9.49112 101.874 8.48597V8.46825C101.874 7.45719 102.049 6.58657 102.4 5.85594C102.757 5.12532 103.26 4.56444 103.909 4.17288C104.564 3.78131 105.339 3.58553 106.234 3.58553C107.135 3.58553 107.91 3.78131 108.559 4.17288C109.208 4.56444 109.708 5.12532 110.059 5.85594C110.416 6.58657 110.594 7.45719 110.594 8.46825V8.48597C110.594 9.49112 110.416 10.3589 110.059 11.0895C109.708 11.8199 109.208 12.3839 108.559 12.7813C107.91 13.1729 107.135 13.3687 106.234 13.3687ZM106.234 12.0188C106.831 12.0188 107.337 11.8786 107.752 11.5979C108.167 11.3175 108.483 10.9141 108.699 10.3882C108.922 9.86213 109.033 9.22819 109.033 8.48597V8.46825C109.033 7.72034 108.922 7.08334 108.699 6.55725C108.483 6.03138 108.167 5.63085 107.752 5.35631C107.337 5.07566 106.831 4.93544 106.234 4.93544C105.638 4.93544 105.132 5.07566 104.716 5.35631C104.301 5.63085 103.982 6.03138 103.76 6.55725C103.544 7.08334 103.435 7.72034 103.435 8.46825V8.48597C103.435 9.22819 103.544 9.86213 103.76 10.3882C103.982 10.9141 104.301 11.3175 104.716 11.5979C105.132 11.8786 105.638 12.0188 106.234 12.0188ZM116.13 13.3687C115.417 13.3687 114.817 13.2344 114.332 12.9655C113.846 12.6908 113.481 12.2933 113.235 11.7733C112.995 11.2472 112.875 10.6131 112.875 9.87088V3.75201H114.402V9.50272C114.402 10.3502 114.566 10.9815 114.893 11.3962C115.227 11.8112 115.771 12.0188 116.525 12.0188C116.94 12.0188 117.306 11.9573 117.622 11.8346C117.943 11.7119 118.212 11.5367 118.429 11.3087C118.645 11.0749 118.806 10.7944 118.911 10.467C119.022 10.134 119.078 9.75997 119.078 9.345V3.75201H120.605V13.2022H119.078V11.7908H118.938C118.786 12.124 118.578 12.4103 118.315 12.6499C118.052 12.8837 117.736 13.062 117.367 13.1847C117.005 13.3074 116.592 13.3687 116.13 13.3687ZM128.597 13.2022V0H130.123V5.17213H130.264C130.504 4.66966 130.849 4.28094 131.299 4.00619C131.749 3.72575 132.323 3.58553 133.019 3.58553C133.726 3.58553 134.326 3.72269 134.817 3.99744C135.308 4.26628 135.683 4.66091 135.94 5.18088C136.197 5.70106 136.326 6.33522 136.326 7.08335V13.2022H134.799V7.45151C134.799 6.59816 134.618 5.96707 134.255 5.558C133.899 5.14304 133.343 4.93544 132.589 4.93544C132.086 4.93544 131.65 5.0435 131.281 5.25984C130.913 5.47597 130.626 5.78288 130.422 6.18035C130.223 6.57782 130.123 7.05403 130.123 7.60922V13.2022H128.597ZM141.686 13.3687C141.09 13.3687 140.552 13.2547 140.072 13.0268C139.598 12.7988 139.221 12.4747 138.94 12.0538C138.666 11.6329 138.528 11.1361 138.528 10.5634V10.5459C138.528 9.98484 138.663 9.50578 138.932 9.10831C139.201 8.70494 139.593 8.3895 140.107 8.16156C140.622 7.93362 141.245 7.79909 141.976 7.75819L145.45 7.54797V8.76641L142.16 8.97685C141.441 9.01776 140.914 9.16672 140.581 9.42397C140.253 9.681 140.09 10.0433 140.09 10.5109V10.5284C140.09 11.0077 140.271 11.3818 140.634 11.6506C140.996 11.9136 141.452 12.045 142.002 12.045C142.523 12.045 142.985 11.9427 143.388 11.7381C143.792 11.5279 144.108 11.2444 144.336 10.8878C144.57 10.5313 144.687 10.1281 144.687 9.67816V6.73269C144.687 6.14819 144.509 5.70391 144.152 5.40007C143.801 5.09032 143.271 4.93544 142.564 4.93544C141.996 4.93544 141.531 5.03781 141.169 5.24234C140.806 5.44097 140.563 5.72447 140.441 6.09263L140.432 6.11887H138.905L138.914 6.06638C138.996 5.5696 139.201 5.13712 139.528 4.76897C139.862 4.39491 140.292 4.10551 140.818 3.90097C141.344 3.69076 141.944 3.58553 142.616 3.58553C143.388 3.58553 144.041 3.7111 144.573 3.96244C145.111 4.21378 145.517 4.57603 145.792 5.04941C146.073 5.51688 146.213 6.07797 146.213 6.73269V13.2022H144.687V11.8083H144.546C144.348 12.1415 144.105 12.425 143.818 12.6586C143.538 12.8925 143.219 13.0707 142.862 13.1935C142.505 13.3103 142.113 13.3687 141.686 13.3687ZM151.328 13.2022L147.828 3.75201H149.442L152.03 11.5367H152.17L154.758 3.75201H156.373L152.872 13.2022H151.328ZM161.9 13.3687C160.999 13.3687 160.224 13.1701 159.575 12.7726C158.932 12.3751 158.434 11.8142 158.084 11.0895C157.738 10.3589 157.566 9.49988 157.566 8.51222V8.50347C157.566 7.52741 157.738 6.67122 158.084 5.93491C158.434 5.19838 158.929 4.62284 159.566 4.20787C160.204 3.7929 160.949 3.58553 161.803 3.58553C162.663 3.58553 163.4 3.78416 164.014 4.18163C164.634 4.57888 165.108 5.13428 165.435 5.84719C165.769 6.55441 165.935 7.37844 165.935 8.31928V8.91537H158.355V7.69694H165.155L164.4 8.81016V8.20531C164.4 7.46309 164.289 6.85235 164.067 6.37307C163.845 5.89401 163.537 5.53744 163.146 5.30359C162.754 5.06406 162.303 4.94419 161.794 4.94419C161.286 4.94419 160.829 5.06997 160.426 5.3211C160.028 5.56676 159.712 5.93185 159.478 6.41704C159.244 6.902 159.128 7.49809 159.128 8.20531V8.81016C159.128 9.48238 159.242 10.0579 159.47 10.5372C159.698 11.0106 160.022 11.3759 160.443 11.6329C160.865 11.8843 161.362 12.01 161.935 12.01C162.362 12.01 162.733 11.9514 163.049 11.8346C163.365 11.7178 163.625 11.5688 163.83 11.3875C164.035 11.2063 164.178 11.0224 164.26 10.8353L164.295 10.7564H165.821L165.804 10.8266C165.722 11.1479 165.576 11.4605 165.365 11.7646C165.161 12.0625 164.894 12.3342 164.567 12.5797C164.239 12.8194 163.85 13.0123 163.4 13.1583C162.956 13.2987 162.455 13.3687 161.9 13.3687ZM4.25508 35.1472C3.28409 35.1472 2.57933 34.9514 2.14066 34.5599C1.70785 34.1683 1.49145 33.5226 1.49145 32.6226V26.8894H0V25.627H1.49145V23.1812H3.07062V25.627H5.14105V26.8894H3.07062V32.237C3.07062 32.7922 3.1759 33.1925 3.38646 33.4379C3.59701 33.6774 3.94794 33.7973 4.4392 33.7973C4.57383 33.7973 4.68789 33.7945 4.78136 33.7886C4.88075 33.7827 5.00072 33.7739 5.14105 33.7623V35.0597C4.99481 35.0831 4.84857 35.1035 4.70234 35.121C4.5561 35.1385 4.40701 35.1472 4.25508 35.1472ZM7.50975 35.0772V21.875H9.03627V27.0471H9.17682C9.41654 26.5447 9.76155 26.1559 10.2119 25.8812C10.6624 25.6008 11.2355 25.4605 11.9315 25.4605C12.6392 25.4605 13.2386 25.5977 13.7299 25.8724C14.2214 26.1413 14.5957 26.5359 14.8529 27.0559C15.1104 27.5761 15.2389 28.2102 15.2389 28.9583V35.0772H13.7124V29.3265C13.7124 28.4732 13.5311 27.8421 13.1686 27.433C12.8117 27.018 12.2561 26.8104 11.5015 26.8104C10.9987 26.8104 10.5628 26.9185 10.1944 27.1348C9.82591 27.351 9.53935 27.6579 9.33466 28.0553C9.13588 28.4528 9.03627 28.929 9.03627 29.4842V35.0772H7.50975ZM21.8627 35.2437C20.9621 35.2437 20.1871 35.0451 19.5378 34.6476C18.8944 34.2501 18.3972 33.6892 18.0463 32.9645C17.7013 32.2339 17.5288 31.3749 17.5288 30.3872V30.3785C17.5288 29.4024 17.7013 28.5462 18.0463 27.8099C18.3972 27.0734 18.8916 26.4978 19.5291 26.0829C20.1666 25.6679 20.9122 25.4605 21.7662 25.4605C22.6259 25.4605 23.363 25.6592 23.9771 26.0566C24.597 26.4539 25.0708 27.0093 25.3983 27.7222C25.7317 28.4294 25.8983 29.2534 25.8983 30.1943V30.7904H18.3184V29.5719H25.1176L24.363 30.6852V30.0803C24.363 29.3381 24.252 28.7273 24.0296 28.2481C23.8074 27.769 23.5005 27.4124 23.1086 27.1786C22.7167 26.9391 22.2662 26.8192 21.7574 26.8192C21.2487 26.8192 20.7924 26.945 20.3888 27.1961C19.9912 27.4418 19.6753 27.8068 19.4413 28.292C19.2075 28.777 19.0903 29.3731 19.0903 30.0803V30.6852C19.0903 31.3574 19.2044 31.9329 19.4325 32.4122C19.6606 32.8856 19.9853 33.2509 20.4063 33.5079C20.8275 33.7593 21.3246 33.885 21.8978 33.885C22.3247 33.885 22.6962 33.8264 23.0121 33.7096C23.3277 33.5928 23.588 33.4438 23.7927 33.2625C23.9974 33.0813 24.1408 32.8974 24.2227 32.7103L24.2577 32.6314H25.7842L25.7667 32.7016C25.6848 33.0229 25.5386 33.3355 25.328 33.6396C25.1233 33.9375 24.8573 34.2092 24.5298 34.4547C24.2023 34.6944 23.8133 34.8873 23.363 35.0333C22.9184 35.1737 22.4184 35.2437 21.8627 35.2437ZM31.5131 35.2437C30.8113 35.2437 30.1913 35.1385 29.6532 34.9283C29.1151 34.7119 28.6823 34.4109 28.3548 34.0253C28.0332 33.6396 27.8432 33.1866 27.7845 32.6664H29.3463C29.475 33.0579 29.7263 33.3736 30.1006 33.6131C30.475 33.8529 30.9634 33.9725 31.5659 33.9725C31.9928 33.9725 32.3671 33.9113 32.6887 33.7886C33.0162 33.6599 33.2737 33.4876 33.4608 33.2712C33.648 33.0492 33.7415 32.795 33.7415 32.5087V32.4912C33.7415 32.1696 33.613 31.8979 33.3555 31.6759C33.0981 31.4479 32.6771 31.2638 32.0922 31.1235L30.6272 30.7729C30.0363 30.6327 29.5509 30.4515 29.1707 30.2293C28.7906 30.0013 28.5098 29.7238 28.3285 29.3965C28.1472 29.0633 28.0566 28.6718 28.0566 28.2218V28.2131C28.0566 27.6872 28.2085 27.2167 28.5128 26.8017C28.8228 26.3867 29.2438 26.0595 29.776 25.8199C30.3084 25.5802 30.9078 25.4605 31.5746 25.4605C32.2356 25.4605 32.8203 25.5658 33.3293 25.776C33.8439 25.9805 34.2562 26.2728 34.5662 26.6527C34.8821 27.0325 35.0751 27.4796 35.1452 27.9939H33.645C33.5456 27.6198 33.3174 27.316 32.9608 27.0823C32.604 26.8485 32.139 26.7317 31.5659 26.7317C31.1915 26.7317 30.8581 26.7929 30.5656 26.9157C30.2732 27.0325 30.0422 27.1961 29.8725 27.4065C29.7029 27.617 29.6182 27.8624 29.6182 28.1431V28.1606C29.6182 28.371 29.6738 28.5578 29.785 28.7217C29.896 28.8853 30.0685 29.0283 30.3025 29.1511C30.5365 29.2738 30.8375 29.3818 31.2062 29.4755L32.6624 29.8261C33.5515 30.0422 34.2124 30.352 34.6452 30.7554C35.0839 31.1585 35.3033 31.6993 35.3033 32.3772V32.3947C35.3033 32.9558 35.1364 33.4526 34.803 33.885C34.4698 34.3116 34.0165 34.6448 33.4433 34.8843C32.8759 35.124 32.2325 35.2437 31.5131 35.2437ZM41.5322 35.2437C40.6313 35.2437 39.8566 35.0451 39.2072 34.6476C38.5638 34.2501 38.0667 33.6892 37.7157 32.9645C37.3707 32.2339 37.1982 31.3749 37.1982 30.3872V30.3785C37.1982 29.4024 37.3707 28.5462 37.7157 27.8099C38.0667 27.0734 38.561 26.4978 39.1985 26.0829C39.836 25.6679 40.5816 25.4605 41.4356 25.4605C42.2953 25.4605 43.0324 25.6592 43.6465 26.0566C44.2665 26.4539 44.7402 27.0093 45.0677 27.7222C45.4011 28.4294 45.5677 29.2534 45.5677 30.1943V30.7904H37.9879V29.5719H44.787L44.0324 30.6852V30.0803C44.0324 29.3381 43.9214 28.7273 43.699 28.2481C43.4768 27.769 43.1697 27.4124 42.7778 27.1786C42.3859 26.9391 41.9356 26.8192 41.4269 26.8192C40.9181 26.8192 40.4619 26.945 40.0582 27.1961C39.6604 27.4418 39.3447 27.8068 39.1107 28.292C38.8767 28.777 38.7598 29.3731 38.7598 30.0803V30.6852C38.7598 31.3574 38.8738 31.9329 39.1019 32.4122C39.3301 32.8856 39.6547 33.2509 40.0757 33.5079C40.4969 33.7593 40.9941 33.885 41.5672 33.885C41.9941 33.885 42.3656 33.8264 42.6815 33.7096C42.9972 33.5928 43.2575 33.4438 43.4621 33.2625C43.6668 33.0813 43.8102 32.8974 43.8921 32.7103L43.9271 32.6314H45.4537L45.4361 32.7016C45.3543 33.0229 45.208 33.3355 44.9974 33.6396C44.7927 33.9375 44.5268 34.2092 44.1993 34.4547C43.8715 34.6944 43.4827 34.8873 43.0324 35.0333C42.5878 35.1737 42.0878 35.2437 41.5322 35.2437ZM52.9899 35.0772V25.627H54.5165V27.0646H54.6568C54.8674 26.5563 55.189 26.1618 55.6218 25.8812C56.0605 25.6008 56.5898 25.4605 57.2098 25.4605C57.6367 25.4605 58.0198 25.5305 58.3589 25.6708C58.6982 25.8112 58.9907 26.007 59.2364 26.2581C59.482 26.5038 59.6779 26.7901 59.8241 27.1173H59.9645C60.1341 26.7842 60.3623 26.4948 60.6488 26.2493C60.9354 25.9982 61.266 25.8053 61.6401 25.6708C62.0203 25.5305 62.4269 25.4605 62.8597 25.4605C63.5031 25.4605 64.0469 25.5802 64.4915 25.8199C64.9418 26.0595 65.284 26.4101 65.518 26.8719C65.7518 27.3278 65.8689 27.8858 65.8689 28.5462V35.0772H64.3424V28.8969C64.3424 28.4294 64.2693 28.0435 64.1231 27.7397C63.9825 27.4299 63.7662 27.1992 63.4737 27.0471C63.1813 26.8894 62.8128 26.8104 62.3684 26.8104C61.9297 26.8104 61.5466 26.9098 61.2191 27.1086C60.8916 27.3072 60.6372 27.5732 60.4557 27.9064C60.2745 28.2336 60.1838 28.5987 60.1838 29.0021V35.0772H58.6573V28.6602C58.6573 28.2861 58.5754 27.9617 58.4117 27.6872C58.2538 27.4065 58.0257 27.1904 57.7273 27.0384C57.4349 26.8866 57.0899 26.8104 56.6921 26.8104C56.2827 26.8104 55.9114 26.9185 55.578 27.1348C55.2505 27.351 54.9902 27.6432 54.7971 28.0114C54.6099 28.3738 54.5165 28.777 54.5165 29.2213V35.0772H52.9899ZM71.2204 35.2437C70.6239 35.2437 70.0858 35.1297 69.6061 34.9018C69.1324 34.6738 68.7552 34.3497 68.4745 33.9288C68.1995 33.5079 68.0621 33.0111 68.0621 32.4384V32.4209C68.0621 31.8598 68.1967 31.3808 68.4658 30.9833C68.7348 30.5799 69.1267 30.2645 69.6414 30.0366C70.156 29.8086 70.7789 29.6741 71.51 29.6332L74.9841 29.423V30.6414L71.6942 30.8518C70.9748 30.8928 70.4485 31.0417 70.1151 31.299C69.7876 31.556 69.6238 31.9183 69.6238 32.3859V32.4034C69.6238 32.8827 69.8051 33.2568 70.1676 33.5256C70.5304 33.7886 70.9866 33.92 71.5363 33.92C72.0569 33.92 72.5188 33.8177 72.9225 33.6131C73.326 33.4029 73.6419 33.1194 73.87 32.7628C74.104 32.4063 74.2209 32.0031 74.2209 31.5532V28.6077C74.2209 28.0232 74.0425 27.5789 73.6857 27.2751C73.3347 26.9653 72.8054 26.8104 72.0978 26.8104C71.5304 26.8104 71.0654 26.9128 70.7029 27.1173C70.3401 27.316 70.0976 27.5995 69.9748 27.9676L69.966 27.9939H68.4393L68.4482 27.9414C68.5301 27.4446 68.7348 27.0121 69.0623 26.644C69.3957 26.2699 69.8255 25.9805 70.352 25.776C70.8782 25.5658 71.4779 25.4605 72.1504 25.4605C72.9225 25.4605 73.5747 25.5861 74.1069 25.8374C74.645 26.0888 75.0515 26.451 75.3262 26.9244C75.6071 27.3919 75.7474 27.953 75.7474 28.6077V35.0772H74.2209V33.6833H74.0806C73.8816 34.0165 73.639 34.3 73.3522 34.5336C73.0716 34.7675 72.7528 34.9457 72.396 35.0685C72.0394 35.1853 71.6475 35.2437 71.2204 35.2437ZM81.8973 35.1472C80.9264 35.1472 80.2217 34.9514 79.783 34.5599C79.3502 34.1683 79.1339 33.5226 79.1339 32.6226V26.8894H77.6424V25.627H79.1339V23.1812H80.713V25.627H82.7835V26.8894H80.713V32.237C80.713 32.7922 80.8183 33.1925 81.0289 33.4379C81.2395 33.6774 81.5904 33.7973 82.0816 33.7973C82.2161 33.7973 82.3301 33.7945 82.4238 33.7886C82.5232 33.7827 82.6432 33.7739 82.7835 33.7623V35.0597C82.6373 35.0831 82.491 35.1035 82.3448 35.121C82.1985 35.1385 82.0495 35.1472 81.8973 35.1472ZM88.8018 35.2437C87.9012 35.2437 87.1262 35.0451 86.4769 34.6476C85.8337 34.2501 85.3365 33.6892 84.9856 32.9645C84.6404 32.2339 84.4679 31.3749 84.4679 30.3872V30.3785C84.4679 29.4024 84.6404 28.5462 84.9856 27.8099C85.3365 27.0734 85.8306 26.4978 86.4681 26.0829C87.1056 25.6679 87.8515 25.4605 88.7052 25.4605C89.5652 25.4605 90.302 25.6592 90.9161 26.0566C91.5361 26.4539 92.0098 27.0093 92.3373 27.7222C92.6707 28.4294 92.8376 29.2534 92.8376 30.1943V30.7904H85.2575V29.5719H92.0567L91.3023 30.6852V30.0803C91.3023 29.3381 91.1911 28.7273 90.9689 28.2481C90.7467 27.769 90.4395 27.4124 90.0477 27.1786C89.6558 26.9391 89.2055 26.8192 88.6965 26.8192C88.1877 26.8192 87.7315 26.945 87.328 27.1961C86.9302 27.4418 86.6143 27.8068 86.3805 28.292C86.1465 28.777 86.0296 29.3731 86.0296 30.0803V30.6852C86.0296 31.3574 86.1437 31.9329 86.3718 32.4122C86.5999 32.8856 86.9243 33.2509 87.3455 33.5079C87.7665 33.7593 88.2637 33.885 88.837 33.885C89.2639 33.885 89.6352 33.8264 89.9511 33.7096C90.267 33.5928 90.5273 33.4438 90.732 33.2625C90.9367 33.0813 91.0799 32.8974 91.1617 32.7103L91.197 32.6314H92.7235L92.706 32.7016C92.6241 33.0229 92.4779 33.3355 92.2673 33.6396C92.0626 33.9375 91.7964 34.2092 91.4689 34.4547C91.1414 34.6944 90.7524 34.8873 90.302 35.0333C89.8576 35.1737 89.3574 35.2437 88.8018 35.2437ZM95.2063 35.0772V25.627H96.7328V27.0296H96.8731C97.0544 26.5328 97.3615 26.1472 97.7943 25.8724C98.2271 25.5977 98.7624 25.4605 99.3999 25.4605C99.5461 25.4605 99.6893 25.4693 99.8296 25.4868C99.9759 25.4984 100.087 25.5102 100.163 25.5218V27.0034C100.005 26.9741 99.8502 26.9537 99.698 26.9419C99.5518 26.9244 99.394 26.9157 99.2243 26.9157C98.739 26.9157 98.309 27.0121 97.9346 27.2051C97.5603 27.3978 97.265 27.6666 97.0487 28.0114C96.8381 28.3563 96.7328 28.7595 96.7328 29.2213V35.0772H95.2063ZM102.084 35.0772V25.627H103.611V35.0772H102.084ZM102.856 23.8035C102.57 23.8035 102.321 23.7013 102.111 23.4968C101.906 23.2864 101.804 23.0381 101.804 22.7518C101.804 22.4595 101.906 22.211 102.111 22.0065C102.321 21.8019 102.57 21.6998 102.856 21.6998C103.149 21.6998 103.398 21.8019 103.602 22.0065C103.807 22.211 103.909 22.4595 103.909 22.7518C103.909 23.0381 103.807 23.2864 103.602 23.4968C103.398 23.7013 103.149 23.8035 102.856 23.8035ZM109.085 35.2437C108.489 35.2437 107.951 35.1297 107.471 34.9018C106.997 34.6738 106.62 34.3497 106.339 33.9288C106.064 33.5079 105.927 33.0111 105.927 32.4384V32.4209C105.927 31.8598 106.062 31.3808 106.331 30.9833C106.6 30.5799 106.992 30.2645 107.506 30.0366C108.021 29.8086 108.644 29.6741 109.375 29.6332L112.849 29.423V30.6414L109.559 30.8518C108.84 30.8928 108.313 31.0417 107.98 31.299C107.652 31.556 107.489 31.9183 107.489 32.3859V32.4034C107.489 32.8827 107.67 33.2568 108.032 33.5256C108.395 33.7886 108.851 33.92 109.401 33.92C109.922 33.92 110.384 33.8177 110.787 33.6131C111.191 33.4029 111.507 33.1194 111.735 32.7628C111.969 32.4063 112.086 32.0031 112.086 31.5532V28.6077C112.086 28.0232 111.907 27.5789 111.551 27.2751C111.2 26.9653 110.67 26.8104 109.963 26.8104C109.395 26.8104 108.93 26.9128 108.568 27.1173C108.205 27.316 107.962 27.5995 107.84 27.9676L107.831 27.9939H106.304L106.313 27.9414C106.395 27.4446 106.6 27.0121 106.927 26.644C107.261 26.2699 107.691 25.9805 108.217 25.776C108.743 25.5658 109.343 25.4605 110.015 25.4605C110.787 25.4605 111.44 25.5861 111.972 25.8374C112.51 26.0888 112.916 26.451 113.191 26.9244C113.472 27.3919 113.612 27.953 113.612 28.6077V35.0772H112.086V33.6833H111.945C111.747 34.0165 111.504 34.3 111.217 34.5336C110.936 34.7675 110.618 34.9457 110.261 35.0685C109.904 35.1853 109.512 35.2437 109.085 35.2437ZM116.49 35.0772V21.875H118.017V35.0772H116.49ZM124.193 35.2437C123.491 35.2437 122.871 35.1385 122.333 34.9283C121.795 34.7119 121.362 34.4109 121.034 34.0253C120.713 33.6396 120.523 33.1866 120.464 32.6664H122.026C122.155 33.0579 122.406 33.3736 122.78 33.6131C123.155 33.8529 123.643 33.9725 124.245 33.9725C124.672 33.9725 125.047 33.9113 125.368 33.7886C125.696 33.6599 125.953 33.4876 126.14 33.2712C126.328 33.0492 126.421 32.795 126.421 32.5087V32.4912C126.421 32.1696 126.293 31.8979 126.035 31.6759C125.778 31.4479 125.357 31.2638 124.772 31.1235L123.307 30.7729C122.716 30.6327 122.23 30.4515 121.85 30.2293C121.47 30.0013 121.189 29.7238 121.008 29.3965C120.827 29.0633 120.736 28.6718 120.736 28.2218V28.2131C120.736 27.6872 120.888 27.2167 121.192 26.8017C121.502 26.3867 121.923 26.0595 122.456 25.8199C122.988 25.5802 123.587 25.4605 124.254 25.4605C124.915 25.4605 125.5 25.5658 126.009 25.776C126.523 25.9805 126.936 26.2728 127.246 26.6527C127.562 27.0325 127.755 27.4796 127.825 27.9939H126.325C126.225 27.6198 125.997 27.316 125.64 27.0823C125.284 26.8485 124.819 26.7317 124.245 26.7317C123.871 26.7317 123.538 26.7929 123.245 26.9157C122.953 27.0325 122.722 27.1961 122.552 27.4065C122.383 27.617 122.298 27.8624 122.298 28.1431V28.1606C122.298 28.371 122.353 28.5578 122.465 28.7217C122.576 28.8853 122.748 29.0283 122.982 29.1511C123.216 29.2738 123.517 29.3818 123.886 29.4755L125.342 29.8261C126.231 30.0422 126.892 30.352 127.325 30.7554C127.763 31.1585 127.983 31.6993 127.983 32.3772V32.3947C127.983 32.9558 127.816 33.4526 127.483 33.885C127.149 34.3116 126.696 34.6448 126.123 34.8843C125.555 35.124 124.912 35.2437 124.193 35.2437ZM0.894876 56.9522V47.502H2.4214V48.9046H2.56177C2.74308 48.4078 3.05015 48.0222 3.48296 47.7474C3.91576 47.4727 4.45102 47.3355 5.08851 47.3355C5.23475 47.3355 5.37792 47.3443 5.51825 47.3618C5.66448 47.3734 5.77569 47.3852 5.85166 47.3968V48.8784C5.69382 48.8491 5.53883 48.8287 5.38668 48.8169C5.24044 48.7994 5.0826 48.7907 4.91294 48.7907C4.42759 48.7907 3.99764 48.8871 3.62328 49.0801C3.249 49.2728 2.95363 49.5416 2.73723 49.8864C2.52668 50.2313 2.4214 50.6345 2.4214 51.0963V56.9522H0.894876ZM11.3349 57.1187C10.4343 57.1187 9.65932 56.9201 9.01 56.5226C8.3666 56.1251 7.86944 55.5642 7.51851 54.8395C7.17349 54.1089 7.00099 53.2499 7.00099 52.2622V52.2535C7.00099 51.2774 7.17349 50.4212 7.51851 49.6849C7.86944 48.9484 8.36375 48.3728 9.00125 47.9579C9.63874 47.5429 10.3846 47.3355 11.2384 47.3355C12.0983 47.3355 12.8352 47.5342 13.4492 47.9316C14.0692 48.3289 14.543 48.8843 14.8705 49.5972C15.2039 50.3044 15.3705 51.1284 15.3705 52.0693V52.6654H7.79062V51.4469H14.5898L13.8352 52.5602V51.9553C13.8352 51.2131 13.7242 50.6023 13.502 50.1231C13.2796 49.644 12.9727 49.2874 12.5808 49.0536C12.1889 48.8141 11.7384 48.6942 11.2296 48.6942C10.7209 48.6942 10.2646 48.82 9.86094 49.0711C9.46338 49.3168 9.14749 49.6818 8.91346 50.167C8.67966 50.652 8.56253 51.2481 8.56253 51.9553V52.5602C8.56253 53.2324 8.67659 53.8079 8.9047 54.2872C9.13282 54.7606 9.45747 55.1259 9.87867 55.3829C10.2997 55.6343 10.7968 55.76 11.3699 55.76C11.7971 55.76 12.1683 55.7014 12.4842 55.5846C12.8001 55.4678 13.0602 55.3188 13.2649 55.1375C13.4698 54.9563 13.613 54.7724 13.6949 54.5853L13.7299 54.5064H15.2564L15.2389 54.5766C15.157 54.8979 15.0108 55.2105 14.8004 55.5146C14.5957 55.8125 14.3295 56.0842 14.002 56.3297C13.6745 56.5694 13.2855 56.7623 12.8352 56.9083C12.3905 57.0487 11.8905 57.1187 11.3349 57.1187ZM20.3362 57.1187C19.7397 57.1187 19.2016 57.0047 18.7219 56.7768C18.2482 56.5488 17.871 56.2247 17.5901 55.8038C17.3153 55.3829 17.1779 54.8861 17.1779 54.3134V54.2959C17.1779 53.7348 17.3123 53.2558 17.5813 52.8583C17.8504 52.4549 18.2423 52.1395 18.7569 51.9116C19.2716 51.6836 19.8947 51.5491 20.6256 51.5082L24.0999 51.298V52.5164L20.81 52.7268C20.0906 52.7678 19.5641 52.9167 19.2307 53.174C18.9032 53.431 18.7394 53.7933 18.7394 54.2609V54.2784C18.7394 54.7577 18.9207 55.1318 19.2834 55.4006C19.646 55.6636 20.1022 55.795 20.6521 55.795C21.1725 55.795 21.6346 55.6927 22.0381 55.4881C22.4418 55.2779 22.7577 54.9944 22.9856 54.6378C23.2196 54.2813 23.3365 53.8781 23.3365 53.4282V50.4827C23.3365 49.8982 23.1583 49.4539 22.8015 49.1501C22.4505 48.8403 21.9212 48.6854 21.2134 48.6854C20.6462 48.6854 20.1812 48.7878 19.8185 48.9923C19.4559 49.191 19.2132 49.4745 19.0903 49.8426L19.0816 49.8689H17.5551L17.5638 49.8164C17.6457 49.3196 17.8504 48.8871 18.1779 48.519C18.5113 48.1449 18.9413 47.8555 19.4675 47.651C19.994 47.4408 20.5934 47.3355 21.2662 47.3355C22.0381 47.3355 22.6902 47.4611 23.2224 47.7124C23.7605 47.9638 24.1671 48.326 24.442 48.7994C24.7227 49.2669 24.863 49.828 24.863 50.4827V56.9522H23.3365V55.5583H23.1962C22.9974 55.8915 22.7546 56.175 22.468 56.4086C22.1874 56.6425 21.8686 56.8207 21.5118 56.9435C21.155 57.0603 20.7631 57.1187 20.3362 57.1187ZM31.1447 57.1187C30.3493 57.1187 29.6532 56.9172 29.0566 56.5138C28.4601 56.1107 27.9982 55.5437 27.6704 54.8133C27.3429 54.0768 27.1792 53.2177 27.1792 52.236V52.2183C27.1792 51.2306 27.3429 50.3716 27.6704 49.6409C27.9982 48.9105 28.4572 48.3435 29.0479 47.9404C29.6444 47.537 30.3434 47.3355 31.1447 47.3355C31.5775 47.3355 31.984 47.4055 32.3643 47.5458C32.7502 47.6803 33.0924 47.8702 33.3906 48.1156C33.6889 48.361 33.923 48.6533 34.0924 48.9923H34.2327V43.75H35.7595V56.9522H34.2327V55.4444H34.0924C33.8996 55.795 33.6568 56.096 33.3643 56.3474C33.0718 56.5928 32.7384 56.7827 32.3643 56.9172C31.9899 57.0515 31.5834 57.1187 31.1447 57.1187ZM31.4956 55.7688C32.0687 55.7688 32.5631 55.6255 32.9783 55.3392C33.3936 55.0528 33.7124 54.6466 33.9346 54.1207C34.1568 53.5887 34.268 52.9605 34.268 52.236V52.2183C34.268 51.4878 34.1568 50.8596 33.9346 50.3335C33.7124 49.8076 33.3936 49.4014 32.9783 49.1151C32.5631 48.8287 32.0687 48.6854 31.4956 48.6854C30.9225 48.6854 30.4282 48.8287 30.0129 49.1151C29.6035 49.3955 29.2878 49.7989 29.0654 50.3247C28.8491 50.8508 28.7409 51.4819 28.7409 52.2183V52.236C28.7409 52.9664 28.8491 53.5975 29.0654 54.1295C29.2878 54.6553 29.6035 55.0616 30.0129 55.3479C30.4282 55.6286 30.9225 55.7688 31.4956 55.7688ZM39.4967 60.2658C39.3973 60.2658 39.2863 60.2599 39.1635 60.2483C39.0406 60.2424 38.9266 60.2308 38.8213 60.2133V58.9597C38.9148 58.9772 39.0172 58.989 39.1282 58.9947C39.2394 59.0006 39.3476 59.0034 39.4529 59.0034C39.8857 59.0034 40.2394 58.8925 40.5144 58.6703C40.7953 58.4483 41.0203 58.0654 41.19 57.5221L41.3653 56.961L37.8648 47.502H39.4967L42.4094 56.2334L41.8041 55.2779H42.5234L41.9181 56.2334L44.8221 47.502H46.4276L42.734 57.5308C42.4768 58.2378 42.2047 58.7902 41.9181 59.1876C41.6316 59.5851 41.2953 59.8627 40.9091 60.0204C40.5291 60.184 40.0582 60.2658 39.4967 60.2658ZM58.2011 57.1187C57.7624 57.1187 57.3561 57.0515 56.9817 56.9172C56.6074 56.7827 56.2739 56.5928 55.9815 56.3474C55.689 56.096 55.4464 55.795 55.2533 55.4444H55.113V56.9522H53.5865V43.75H55.113V48.9923H55.2533C55.4287 48.6533 55.6627 48.361 55.9552 48.1156C56.2534 47.8702 56.5927 47.6803 56.973 47.5458C57.3589 47.4055 57.7683 47.3355 58.2011 47.3355C59.0023 47.3355 59.6985 47.537 60.2891 47.9404C60.8857 48.3435 61.3478 48.9105 61.6753 49.6409C62.0028 50.3716 62.1666 51.2306 62.1666 52.2183V52.236C62.1666 53.2177 62.0028 54.0768 61.6753 54.8133C61.3478 55.5437 60.8857 56.1107 60.2891 56.5138C59.6985 56.9172 59.0023 57.1187 58.2011 57.1187ZM57.8502 55.7688C58.4292 55.7688 58.9235 55.6286 59.3329 55.3479C59.7423 55.0616 60.0551 54.6553 60.2716 54.1295C60.4938 53.5975 60.605 52.9664 60.605 52.236V52.2183C60.605 51.4819 60.4938 50.8508 60.2716 50.3247C60.0551 49.7989 59.7423 49.3955 59.3329 49.1151C58.9235 48.8287 58.4292 48.6854 57.8502 48.6854C57.277 48.6854 56.7827 48.8287 56.3674 49.1151C55.9524 49.4014 55.6336 49.8076 55.4112 50.3335C55.189 50.8596 55.0778 51.4878 55.0778 52.2183V52.236C55.0778 52.9605 55.189 53.5887 55.4112 54.1207C55.6336 54.6466 55.9524 55.0528 56.3674 55.3392C56.7827 55.6255 57.277 55.7688 57.8502 55.7688ZM68.3955 57.1187C67.4949 57.1187 66.7199 56.9201 66.0706 56.5226C65.4272 56.1251 64.9302 55.5642 64.5793 54.8395C64.2341 54.1089 64.0615 53.2499 64.0615 52.2622V52.2535C64.0615 51.2774 64.2341 50.4212 64.5793 49.6849C64.9302 48.9484 65.4243 48.3728 66.0618 47.9579C66.6993 47.5429 67.4452 47.3355 68.2989 47.3355C69.1589 47.3355 69.8957 47.5342 70.5098 47.9316C71.1298 48.3289 71.6035 48.8843 71.931 49.5972C72.2644 50.3044 72.4313 51.1284 72.4313 52.0693V52.6654H64.8512V51.4469H71.6504L70.8958 52.5602V51.9553C70.8958 51.2131 70.7848 50.6023 70.5626 50.1231C70.3401 49.644 70.0332 49.2874 69.6414 49.0536C69.2495 48.8141 68.7992 48.6942 68.2902 48.6942C67.7814 48.6942 67.3252 48.82 66.9217 49.0711C66.5239 49.3168 66.208 49.6818 65.974 50.167C65.7402 50.652 65.6231 51.2481 65.6231 51.9553V52.5602C65.6231 53.2324 65.7372 53.8079 65.9653 54.2872C66.1934 54.7606 66.518 55.1259 66.9392 55.3829C67.3602 55.6343 67.8574 55.76 68.4305 55.76C68.8576 55.76 69.2289 55.7014 69.5448 55.5846C69.8607 55.4678 70.121 55.3188 70.3257 55.1375C70.5304 54.9563 70.6736 54.7724 70.7554 54.5853L70.7907 54.5064H72.3172L72.2995 54.5766C72.2176 54.8979 72.0714 55.2105 71.861 55.5146C71.6563 55.8125 71.3901 56.0842 71.0626 56.3297C70.7351 56.5694 70.3461 56.7623 69.8957 56.9083C69.4511 57.0487 68.9511 57.1187 68.3955 57.1187ZM75.4315 56.9522V48.7644H73.8612V47.502H75.4315V46.45C75.4315 45.8189 75.534 45.2987 75.7387 44.8897C75.9493 44.4747 76.2593 44.1678 76.6686 43.9692C77.078 43.7647 77.5811 43.6623 78.1777 43.6623C78.3648 43.6623 78.5402 43.671 78.7039 43.6885C78.8736 43.7003 79.0373 43.7207 79.1952 43.75V44.9684C79.1017 44.9509 78.9936 44.9393 78.8708 44.9334C78.7477 44.9275 78.6192 44.9247 78.4846 44.9247C77.9408 44.9247 77.5489 45.0562 77.309 45.3191C77.0752 45.5823 76.9581 45.9738 76.9581 46.4938V47.502H79.1076V48.7644H76.9581V56.9522H75.4315ZM84.81 57.1187C83.9153 57.1187 83.1403 56.9229 82.4851 56.5313C81.836 56.1339 81.3329 55.5699 80.9763 54.8395C80.6254 54.1089 80.4498 53.2411 80.4498 52.236V52.2183C80.4498 51.2072 80.6254 50.3366 80.9763 49.6059C81.3329 48.8753 81.836 48.3144 82.4851 47.9229C83.1403 47.5313 83.9153 47.3355 84.81 47.3355C85.7109 47.3355 86.4858 47.5313 87.1349 47.9229C87.7843 48.3144 88.2843 48.8753 88.6352 49.6059C88.992 50.3366 89.1702 51.2072 89.1702 52.2183V52.236C89.1702 53.2411 88.992 54.1089 88.6352 54.8395C88.2843 55.5699 87.7843 56.1339 87.1349 56.5313C86.4858 56.9229 85.7109 57.1187 84.81 57.1187ZM84.81 55.7688C85.4066 55.7688 85.9125 55.6286 86.3278 55.3479C86.7431 55.0675 87.059 54.6641 87.2753 54.1382C87.4977 53.6121 87.6087 52.9782 87.6087 52.236V52.2183C87.6087 51.4703 87.4977 50.8333 87.2753 50.3073C87.059 49.7814 86.7431 49.3808 86.3278 49.1063C85.9125 48.8257 85.4066 48.6854 84.81 48.6854C84.2135 48.6854 83.7075 48.8257 83.2923 49.1063C82.877 49.3808 82.5582 49.7814 82.336 50.3073C82.1197 50.8333 82.0114 51.4703 82.0114 52.2183V52.236C82.0114 52.9782 82.1197 53.6121 82.336 54.1382C82.5582 54.6641 82.877 55.0675 83.2923 55.3479C83.7075 55.6286 84.2135 55.7688 84.81 55.7688ZM91.5392 56.9522V47.502H93.0657V48.9046H93.206C93.3873 48.4078 93.6944 48.0222 94.1272 47.7474C94.56 47.4727 95.095 47.3355 95.7325 47.3355C95.8788 47.3355 96.0222 47.3443 96.1625 47.3618C96.3087 47.3734 96.4199 47.3852 96.4959 47.3968V48.8784C96.3381 48.8491 96.1831 48.8287 96.0309 48.8169C95.8847 48.7994 95.7269 48.7907 95.5572 48.7907C95.0718 48.7907 94.6419 48.8871 94.2675 49.0801C93.8932 49.2728 93.5979 49.5416 93.3814 49.8864C93.171 50.2313 93.0657 50.6345 93.0657 51.0963V56.9522H91.5392ZM101.979 57.1187C101.078 57.1187 100.304 56.9201 99.6543 56.5226C99.0109 56.1251 98.5137 55.5642 98.1628 54.8395C97.8177 54.1089 97.6452 53.2499 97.6452 52.2622V52.2535C97.6452 51.2774 97.8177 50.4212 98.1628 49.6849C98.5137 48.9484 99.008 48.3728 99.6455 47.9579C100.283 47.5429 101.029 47.3355 101.883 47.3355C102.742 47.3355 103.479 47.5342 104.093 47.9316C104.713 48.3289 105.187 48.8843 105.515 49.5972C105.848 50.3044 106.015 51.1284 106.015 52.0693V52.6654H98.4349V51.4469H105.234L104.479 52.5602V51.9553C104.479 51.2131 104.368 50.6023 104.146 50.1231C103.924 49.644 103.617 49.2874 103.225 49.0536C102.833 48.8141 102.383 48.6942 101.874 48.6942C101.365 48.6942 100.909 48.82 100.505 49.0711C100.108 49.3168 99.7917 49.6818 99.5577 50.167C99.3237 50.652 99.2068 51.2481 99.2068 51.9553V52.5602C99.2068 53.2324 99.3208 53.8079 99.549 54.2872C99.7771 54.7606 100.102 55.1259 100.523 55.3829C100.944 55.6343 101.441 55.76 102.014 55.76C102.441 55.76 102.813 55.7014 103.129 55.5846C103.444 55.4678 103.704 55.3188 103.909 55.1375C104.114 54.9563 104.257 54.7724 104.339 54.5853L104.374 54.5064H105.901L105.883 54.5766C105.801 54.8979 105.655 55.2105 105.444 55.5146C105.24 55.8125 104.974 56.0842 104.646 56.3297C104.319 56.5694 103.93 56.7623 103.479 56.9083C103.035 57.0487 102.535 57.1187 101.979 57.1187ZM114.244 60.2658C114.145 60.2658 114.034 60.2599 113.911 60.2483C113.788 60.2424 113.674 60.2308 113.569 60.2133V58.9597C113.662 58.9772 113.764 58.989 113.875 58.9947C113.987 59.0006 114.095 59.0034 114.2 59.0034C114.633 59.0034 114.987 58.8925 115.262 58.6703C115.543 58.4483 115.768 58.0654 115.937 57.5221L116.113 56.961L112.612 47.502H114.244L117.157 56.2334L116.551 55.2779H117.271L116.665 56.2334L119.569 47.502H121.175L117.481 57.5308C117.224 58.2378 116.952 58.7902 116.665 59.1876C116.379 59.5851 116.043 59.8627 115.657 60.0204C115.276 60.184 114.805 60.2658 114.244 60.2658ZM126.728 57.1187C125.833 57.1187 125.058 56.9229 124.403 56.5313C123.754 56.1339 123.251 55.5699 122.894 54.8395C122.543 54.1089 122.368 53.2411 122.368 52.236V52.2183C122.368 51.2072 122.543 50.3366 122.894 49.6059C123.251 48.8753 123.754 48.3144 124.403 47.9229C125.058 47.5313 125.833 47.3355 126.728 47.3355C127.629 47.3355 128.404 47.5313 129.053 47.9229C129.702 48.3144 130.202 48.8753 130.553 49.6059C130.91 50.3366 131.088 51.2072 131.088 52.2183V52.236C131.088 53.2411 130.91 54.1089 130.553 54.8395C130.202 55.5699 129.702 56.1339 129.053 56.5313C128.404 56.9229 127.629 57.1187 126.728 57.1187ZM126.728 55.7688C127.325 55.7688 127.831 55.6286 128.246 55.3479C128.661 55.0675 128.977 54.6641 129.193 54.1382C129.416 53.6121 129.527 52.9782 129.527 52.236V52.2183C129.527 51.4703 129.416 50.8333 129.193 50.3073C128.977 49.7814 128.661 49.3808 128.246 49.1063C127.831 48.8257 127.325 48.6854 126.728 48.6854C126.132 48.6854 125.626 48.8257 125.21 49.1063C124.795 49.3808 124.476 49.7814 124.254 50.3073C124.038 50.8333 123.93 51.4703 123.93 52.2183V52.236C123.93 52.9782 124.038 53.6121 124.254 54.1382C124.476 54.6641 124.795 55.0675 125.21 55.3479C125.626 55.6286 126.132 55.7688 126.728 55.7688ZM136.624 57.1187C135.911 57.1187 135.311 56.9844 134.826 56.7155C134.34 56.4408 133.975 56.0433 133.729 55.5233C133.489 54.9972 133.37 54.3631 133.37 53.6209V47.502H134.896V53.2527C134.896 54.1002 135.06 54.7315 135.387 55.1462C135.721 55.5612 136.265 55.7688 137.019 55.7688C137.434 55.7688 137.8 55.7073 138.116 55.5846C138.437 55.4619 138.707 55.2867 138.923 55.0587C139.139 54.8249 139.3 54.5444 139.405 54.217C139.517 53.884 139.572 53.51 139.572 53.095V47.502H141.099V56.9522H139.572V55.5408H139.432C139.28 55.874 139.072 56.1603 138.809 56.3999C138.546 56.6337 138.23 56.812 137.861 56.9347C137.499 57.0574 137.086 57.1187 136.624 57.1187ZM4.14103 78.9937C3.43917 78.9937 2.81911 78.8885 2.28103 78.6782C1.74295 78.4619 1.31014 78.1609 0.982596 77.7753C0.660917 77.3896 0.470829 76.9366 0.412356 76.4164H1.97397C2.10265 76.8079 2.35415 77.1236 2.72845 77.3631C3.10278 77.6029 3.5911 77.7225 4.19357 77.7225C4.62046 77.7225 4.99481 77.6613 5.31662 77.5386C5.64412 77.4099 5.90135 77.2376 6.08853 77.0212C6.27571 76.7992 6.3694 76.545 6.3694 76.2587V76.2412C6.3694 75.9196 6.24068 75.6479 5.98323 75.4259C5.726 75.1979 5.3048 75.0138 4.72007 74.8735L3.25484 74.5229C2.66413 74.3827 2.17868 74.2015 1.79851 73.9793C1.41833 73.7514 1.13759 73.4738 0.956282 73.1465C0.774973 72.8134 0.68432 72.4218 0.68432 71.9718V71.9631C0.68432 71.4372 0.836382 70.9667 1.14053 70.5517C1.45051 70.1367 1.87163 69.8095 2.40386 69.5699C2.9361 69.3302 3.5355 69.2105 4.20232 69.2105C4.86324 69.2105 5.44819 69.3157 5.95696 69.526C6.47164 69.7305 6.88408 70.0228 7.19407 70.4027C7.50975 70.7825 7.70284 71.2296 7.77311 71.7439H6.27286C6.17347 71.3698 5.94536 71.066 5.58852 70.8324C5.23168 70.5985 4.7667 70.4817 4.19357 70.4817C3.81922 70.4817 3.4858 70.5429 3.19344 70.6657C2.90101 70.7825 2.66998 70.9461 2.50036 71.1565C2.33074 71.367 2.24593 71.6124 2.24593 71.8931V71.9106C2.24593 72.121 2.3015 72.3078 2.41262 72.4717C2.52376 72.6353 2.69629 72.7783 2.93025 72.9011C3.16419 73.0238 3.46544 73.1318 3.83388 73.2255L5.29013 73.5761C6.17916 73.7922 6.84008 74.102 7.27288 74.5054C7.7116 74.9085 7.93095 75.4493 7.93095 76.1272V76.1447C7.93095 76.7058 7.76435 77.2026 7.43094 77.635C7.09753 78.0616 6.64415 78.3948 6.07102 78.6343C5.5038 78.874 4.8604 78.9937 4.14103 78.9937ZM13.5721 78.8972C12.6011 78.8972 11.8965 78.7014 11.4577 78.3099C11.0249 77.9183 10.8086 77.2726 10.8086 76.3726V70.6394H9.31715V69.377H10.8086V66.9312H12.3877V69.377H14.4582V70.6394H12.3877V75.987C12.3877 76.5422 12.493 76.9425 12.7036 77.1879C12.914 77.4274 13.2649 77.5473 13.7564 77.5473C13.8908 77.5473 14.0049 77.5445 14.0986 77.5386C14.1979 77.5327 14.3177 77.5239 14.4582 77.5123V78.8097C14.312 78.8331 14.1658 78.8535 14.0195 78.871C13.8733 78.8885 13.7242 78.8972 13.5721 78.8972ZM19.336 78.9937C18.7394 78.9937 18.2013 78.8797 17.7219 78.6518C17.2479 78.4238 16.8707 78.0997 16.5901 77.6788C16.3151 77.2579 16.1776 76.7611 16.1776 76.1884V76.1709C16.1776 75.6099 16.3123 75.1308 16.5813 74.7333C16.8504 74.3299 17.2422 74.0145 17.7569 73.7866C18.2716 73.5586 18.8944 73.4241 19.6256 73.3832L23.0996 73.173V74.3914L19.8097 74.6018C19.0903 74.6428 18.5641 74.7917 18.2306 75.049C17.9031 75.306 17.7394 75.6683 17.7394 76.1359V76.1534C17.7394 76.6327 17.9207 77.0068 18.2832 77.2756C18.6459 77.5386 19.1022 77.67 19.6519 77.67C20.1725 77.67 20.6344 77.5677 21.0381 77.3631C21.4415 77.1529 21.7574 76.8694 21.9855 76.5128C22.2196 76.1563 22.3365 75.7531 22.3365 75.3032V72.3577C22.3365 71.7732 22.1581 71.3289 21.8012 71.0251C21.4503 70.7153 20.9212 70.5604 20.2134 70.5604C19.646 70.5604 19.181 70.6628 18.8184 70.8674C18.4557 71.066 18.2131 71.3495 18.0903 71.7176L18.0816 71.7439H16.555L16.5638 71.6914C16.6457 71.1946 16.8504 70.7621 17.1779 70.394C17.5113 70.0199 17.941 69.7305 18.4675 69.526C18.9938 69.3157 19.5934 69.2105 20.2659 69.2105C21.0381 69.2105 21.6902 69.3361 22.2224 69.5874C22.7605 69.8388 23.1671 70.201 23.4418 70.6744C23.7227 71.1419 23.863 71.703 23.863 72.3577V78.8272H22.3365V77.4333H22.1961C21.9972 77.7665 21.7546 78.05 21.468 78.2836C21.1872 78.5175 20.8684 78.6957 20.5116 78.8185C20.1549 78.9353 19.7631 78.9937 19.336 78.9937ZM26.6529 78.8272V69.377H28.1794V70.7796H28.3197C28.501 70.2829 28.8082 69.8972 29.241 69.6224C29.6738 69.3477 30.2088 69.2105 30.8465 69.2105C30.9925 69.2105 31.1359 69.2193 31.2762 69.2368C31.4225 69.2484 31.5337 69.2602 31.6097 69.2718V70.7534C31.4518 70.7241 31.2968 70.7037 31.1447 70.6919C30.9984 70.6744 30.8406 70.6657 30.6709 70.6657C30.1856 70.6657 29.7556 70.7621 29.3813 70.9551C29.0069 71.1478 28.7116 71.4166 28.4953 71.7614C28.2847 72.1063 28.1794 72.5095 28.1794 72.9713V78.8272H26.6529ZM37.0314 78.8972C36.0605 78.8972 35.3558 78.7014 34.9171 78.3099C34.4843 77.9183 34.268 77.2726 34.268 76.3726V70.6394H32.7765V69.377H34.268V66.9312H35.8471V69.377H37.9176V70.6394H35.8471V75.987C35.8471 76.5422 35.9524 76.9425 36.163 77.1879C36.3736 77.4274 36.7245 77.5473 37.2157 77.5473C37.3502 77.5473 37.4642 77.5445 37.5579 77.5386C37.6573 77.5327 37.7773 77.5239 37.9176 77.5123V78.8097C37.7714 78.8331 37.6251 78.8535 37.4789 78.871C37.3326 78.8885 37.1836 78.8972 37.0314 78.8972ZM41.4444 78.9149C41.1344 78.9149 40.8653 78.8038 40.6372 78.5818C40.415 78.3538 40.3038 78.085 40.3038 77.7753C40.3038 77.4596 40.415 77.1908 40.6372 76.9687C40.8653 76.7467 41.1344 76.6356 41.4444 76.6356C41.7603 76.6356 42.0293 76.7467 42.2515 76.9687C42.4737 77.1908 42.5849 77.4596 42.5849 77.7753C42.5849 78.085 42.4737 78.3538 42.2515 78.5818C42.0293 78.8038 41.7603 78.9149 41.4444 78.9149Z" fill="var(--fill-0, black)"/>
</svg>
