<svg width="282" height="282" viewBox="0 0 282 282" fill="none" xmlns="http://www.w3.org/2000/svg">
<g id="DRAW-color palette 1">
<path id="Vector" d="M28.1122 224.14C8.73675 198.379 -1.15488 166.72 0.107726 134.51L139.993 139.993L28.1122 224.14Z" fill="var(--fill-0, #A7A3A2)"/>
<path id="Vector_2" d="M0.000191939 139.993C0.000190008 117.901 5.22879 96.1223 15.2585 76.4379C25.2882 56.7534 39.8342 39.7223 57.7072 26.7368C75.5802 13.7513 96.2728 5.18012 118.093 1.72413C139.913 -1.73189 162.242 0.0253995 183.253 6.85229L139.993 139.993H0.000191939Z" fill="var(--fill-0, #9CD08A)"/>
<path id="Vector_3" d="M182.782 6.70045C211.787 16.0116 236.964 34.5299 254.491 59.4454C272.02 84.3608 280.941 114.314 279.905 144.759L139.993 139.993L182.782 6.70045Z" fill="var(--fill-0, #FBE176)"/>
<path id="Vector_4" d="M279.985 139.993C279.985 162.086 274.756 183.864 264.727 203.549C254.698 223.234 240.152 240.264 222.278 253.249L139.993 139.993H279.985Z" fill="var(--fill-0, #BC60FE)"/>
<path id="Vector_5" d="M96.9596 273.208C63.0769 262.262 34.6382 238.817 17.4315 207.644L139.993 139.993L96.9596 273.208Z" fill="var(--fill-0, #252A23)"/>
<path id="Vector_6" d="M223.676 252.222C205.965 265.427 185.381 274.255 163.605 277.981C141.829 281.707 119.48 280.226 98.3864 273.661L139.993 139.993L223.676 252.222Z" fill="var(--fill-0, #F4F4F4)"/>
</g>
</svg>
