<svg preserveAspectRatio="none" width="100%" height="100%" overflow="visible" style="display: block;" viewBox="0 0 183.98 28.7081" fill="none" xmlns="http://www.w3.org/2000/svg">
<path id="Vector" d="M6.88316 22.9058V3.98431H0V1.04519H17.1623V3.98431H10.2792V22.9058H6.88316ZM20.9375 28.693C20.7353 28.693 20.5181 28.6827 20.2856 28.6626C20.0531 28.6525 19.8307 28.6374 19.6186 28.6171V26.0267C19.7801 26.0468 19.957 26.0619 20.1492 26.0719C20.3513 26.0822 20.5433 26.0873 20.7252 26.0873C21.4934 26.0873 22.1151 25.9055 22.5902 25.5419C23.065 25.1884 23.4238 24.5976 23.6666 23.7694L23.9091 22.9211L17.9355 6.45356H21.4984L26.1528 21.2848L25.122 19.5882H26.3803L25.3645 21.2848L30.0038 6.45356H33.4757L27.3505 23.527C26.8858 24.8399 26.3702 25.87 25.8041 26.6175C25.2382 27.3748 24.5661 27.9101 23.7879 28.2233C23.0096 28.5364 22.0595 28.693 20.9375 28.693ZM36.8262 28.3898V6.45356H40.1164V9.04422H40.374C40.6873 8.43806 41.0917 7.92313 41.5868 7.49897C42.0923 7.0746 42.6683 6.74647 43.3152 6.51416C43.9621 6.28184 44.6697 6.16569 45.4378 6.16569C46.8225 6.16569 48.0252 6.51919 49.0461 7.22619C50.0671 7.92313 50.8554 8.90772 51.4113 10.1804C51.9774 11.4428 52.2602 12.9375 52.2602 14.6646V14.6947C52.2602 16.4321 51.9824 17.9368 51.4264 19.2093C50.8705 20.4717 50.0822 21.4515 49.0614 22.1484C48.0406 22.8351 46.8326 23.1785 45.4378 23.1785C44.6797 23.1785 43.9722 23.0624 43.3152 22.8301C42.6582 22.5877 42.0772 22.2543 41.5717 21.8302C41.0665 21.406 40.6672 20.8961 40.374 20.3002H40.1164V28.3898H36.8262ZM44.4978 20.3608C45.4177 20.3608 46.206 20.1335 46.863 19.679C47.52 19.2244 48.0202 18.5732 48.3639 17.7247C48.7177 16.8763 48.8946 15.8664 48.8946 14.6947V14.6646C48.8946 13.4829 48.7177 12.4679 48.3639 11.6196C48.0202 10.7712 47.52 10.1198 46.863 9.66525C46.206 9.21069 45.4177 8.98341 44.4978 8.98341C43.5882 8.98341 42.7999 9.21572 42.1326 9.68035C41.4656 10.1349 40.9553 10.7863 40.6015 11.6347C40.2477 12.4729 40.0708 13.4829 40.0708 14.6646V14.6947C40.0708 15.8563 40.2477 16.8613 40.6015 17.7096C40.9553 18.5579 41.4656 19.2143 42.1326 19.679C42.7999 20.1335 43.5882 20.3608 44.4978 20.3608ZM63.1764 23.224C61.5693 23.224 60.1794 22.8806 59.0071 22.1937C57.8446 21.5071 56.9501 20.5273 56.3236 19.2548C55.6968 17.9721 55.3836 16.4522 55.3836 14.6947V14.6646C55.3836 12.8971 55.6968 11.3772 56.3236 10.1045C56.9602 8.83203 57.8597 7.85247 59.0222 7.16559C60.1947 6.47872 61.5794 6.1355 63.1764 6.1355C64.7835 6.1355 66.1682 6.47872 67.3304 7.16559C68.4929 7.84219 69.3874 8.82197 70.0139 10.1045C70.6507 11.3772 70.969 12.8971 70.969 14.6646V14.6947C70.969 16.4522 70.6507 17.9721 70.0139 19.2548C69.3874 20.5273 68.4929 21.5071 67.3304 22.1937C66.1782 22.8806 64.7936 23.224 63.1764 23.224ZM63.1764 20.4667C64.1162 20.4667 64.9148 20.2396 65.5718 19.7851C66.2288 19.3204 66.729 18.6589 67.0727 17.8006C67.4164 16.942 67.5883 15.9068 67.5883 14.6947V14.6646C67.5883 13.4424 67.4164 12.4022 67.0727 11.5437C66.729 10.6853 66.2288 10.0288 65.5718 9.57425C64.9148 9.10984 64.1162 8.87753 63.1764 8.87753C62.2364 8.87753 61.4377 9.10984 60.7808 9.57425C60.1238 10.0288 59.6185 10.6853 59.2648 11.5437C58.9211 12.4022 58.7492 13.4424 58.7492 14.6646V14.6947C58.7492 15.9068 58.9211 16.942 59.2648 17.8006C59.6185 18.6589 60.1238 19.3204 60.7808 19.7851C61.4377 20.2396 62.2364 20.4667 63.1764 20.4667ZM81.8397 28.7081C80.4447 28.7081 79.2319 28.5163 78.201 28.1323C77.1802 27.7487 76.3715 27.2134 75.7752 26.5265C75.1789 25.8398 74.815 25.0418 74.6837 24.1329L74.6988 24.1025H78.0342L78.0493 24.1329C78.191 24.6984 78.59 25.163 79.247 25.5266C79.904 25.8902 80.7834 26.0719 81.8852 26.0719C83.2394 26.0719 84.2957 25.7639 85.0538 25.1479C85.822 24.5319 86.206 23.6683 86.206 22.5573V19.3305H85.9483C85.6248 19.9163 85.2104 20.4214 84.7051 20.8456C84.1996 21.2597 83.6237 21.5727 82.9767 21.7847C82.3298 21.9968 81.6273 22.1029 80.8692 22.1029C79.4745 22.1029 78.2617 21.7696 77.2306 21.103C76.2097 20.4264 75.4214 19.4972 74.8656 18.3155C74.3198 17.1238 74.0468 15.7553 74.0468 14.21V14.1798C74.0468 12.6142 74.3249 11.2306 74.8807 10.0288C75.4365 8.81694 76.2301 7.87259 77.261 7.19578C78.2919 6.50913 79.52 6.16569 80.9452 6.16569C81.7134 6.16569 82.4157 6.28688 83.0525 6.52925C83.6994 6.77163 84.2706 7.11506 84.7658 7.55956C85.2609 8.00384 85.6703 8.53409 85.9937 9.15009H86.1909V6.45356H89.4808V22.5726C89.4808 23.8149 89.1676 24.8955 88.5408 25.8145C87.9243 26.7337 87.0449 27.4457 85.9028 27.9506C84.7607 28.4557 83.4063 28.7081 81.8397 28.7081ZM81.7941 19.376C82.7241 19.376 83.5225 19.1588 84.1896 18.7246C84.8566 18.2803 85.3671 17.6691 85.7209 16.8914C86.0847 16.1138 86.2667 15.2149 86.2667 14.1949V14.1647C86.2667 13.1547 86.0847 12.2557 85.7209 11.468C85.3671 10.6803 84.8566 10.0643 84.1896 9.61975C83.5225 9.17547 82.7241 8.95322 81.7941 8.95322C80.8642 8.95322 80.0708 9.17547 79.4138 9.61975C78.7669 10.0643 78.2717 10.6803 77.928 11.468C77.5843 12.2456 77.4125 13.1445 77.4125 14.1647V14.1949C77.4125 15.2149 77.5843 16.1138 77.928 16.8914C78.2717 17.6691 78.7669 18.2803 79.4138 18.7246C80.0708 19.1588 80.8642 19.376 81.7941 19.376ZM94.2263 22.9058V6.45356H97.5163V8.93813H97.7739C98.067 8.05941 98.5826 7.37778 99.3204 6.89281C100.068 6.40806 100.988 6.16569 102.08 6.16569C102.353 6.16569 102.621 6.18078 102.883 6.21119C103.146 6.24138 103.358 6.27681 103.52 6.31728V9.34719C103.227 9.2866 102.934 9.24109 102.641 9.21069C102.358 9.1805 102.059 9.16541 101.746 9.16541C100.907 9.16541 100.169 9.32685 99.5327 9.65016C98.9059 9.97325 98.4107 10.4278 98.0469 11.0136C97.6931 11.5892 97.5163 12.276 97.5163 13.0738V22.9058H94.2263ZM111.086 23.1785C110.044 23.1785 109.109 22.9817 108.28 22.5877C107.462 22.1837 106.815 21.6132 106.34 20.8757C105.865 20.1386 105.627 19.2749 105.627 18.2853V18.2549C105.627 17.2653 105.865 16.4218 106.34 15.7251C106.825 15.0281 107.523 14.4828 108.432 14.0888C109.352 13.6848 110.464 13.4424 111.768 13.3617L117.847 12.9981V15.316L112.223 15.6796C111.091 15.7502 110.257 15.9926 109.721 16.4067C109.185 16.8107 108.917 17.3814 108.917 18.1186V18.1488C108.917 18.8963 109.205 19.4871 109.782 19.9213C110.358 20.3455 111.086 20.5577 111.965 20.5577C112.783 20.5577 113.511 20.396 114.148 20.0729C114.795 19.7396 115.3 19.2953 115.664 18.7397C116.028 18.1742 116.21 17.5378 116.21 16.8308V11.6497C116.21 10.7408 115.927 10.0489 115.361 9.57425C114.805 9.0895 113.976 8.84713 112.875 8.84713C111.955 8.84713 111.202 9.00878 110.615 9.33188C110.039 9.65519 109.655 10.1095 109.463 10.6953L109.433 10.7408H106.264L106.279 10.6348C106.411 9.72585 106.77 8.93813 107.356 8.27159C107.952 7.59478 108.73 7.06956 109.691 6.69594C110.661 6.32231 111.768 6.1355 113.011 6.1355C114.396 6.1355 115.568 6.35753 116.528 6.80203C117.499 7.23625 118.231 7.86756 118.727 8.69575C119.232 9.51366 119.485 10.4985 119.485 11.6497V22.9058H116.21V20.5728H115.967C115.644 21.1282 115.239 21.6029 114.754 21.9968C114.269 22.3805 113.718 22.6734 113.102 22.8756C112.485 23.0775 111.813 23.1785 111.086 23.1785ZM124.124 28.3898V6.45356H127.414V9.04422H127.672C127.985 8.43806 128.389 7.92313 128.884 7.49897C129.39 7.0746 129.966 6.74647 130.613 6.51416C131.26 6.28184 131.967 6.16569 132.735 6.16569C134.12 6.16569 135.323 6.51919 136.344 7.22619C137.365 7.92313 138.153 8.90772 138.709 10.1804C139.275 11.4428 139.558 12.9375 139.558 14.6646V14.6947C139.558 16.4321 139.28 17.9368 138.724 19.2093C138.168 20.4717 137.38 21.4515 136.359 22.1484C135.338 22.8351 134.13 23.1785 132.735 23.1785C131.977 23.1785 131.27 23.0624 130.613 22.8301C129.956 22.5877 129.375 22.2543 128.869 21.8302C128.364 21.406 127.965 20.8961 127.672 20.3002H127.414V28.3898H124.124ZM131.795 20.3608C132.715 20.3608 133.504 20.1335 134.161 19.679C134.818 19.2244 135.318 18.5732 135.662 17.7247C136.015 16.8763 136.192 15.8664 136.192 14.6947V14.6646C136.192 13.4829 136.015 12.4679 135.662 11.6196C135.318 10.7712 134.818 10.1198 134.161 9.66525C133.504 9.21069 132.715 8.98341 131.795 8.98341C130.886 8.98341 130.098 9.21572 129.43 9.68035C128.763 10.1349 128.253 10.7863 127.899 11.6347C127.545 12.4729 127.368 13.4829 127.368 14.6646V14.6947C127.368 15.8563 127.545 16.8613 127.899 17.7096C128.253 18.5579 128.763 19.2143 129.43 19.679C130.098 20.1335 130.886 20.3608 131.795 20.3608ZM143.651 22.9058V0H146.941V8.93813H147.199C147.603 8.05941 148.2 7.37253 148.988 6.87772C149.777 6.38291 150.772 6.1355 151.975 6.1355C153.198 6.1355 154.234 6.37284 155.083 6.84753C155.932 7.32222 156.579 8.01894 157.023 8.93813C157.468 9.84703 157.691 10.953 157.691 12.2557V22.9058H154.385V13.0283C154.385 11.6548 154.097 10.6348 153.521 9.96822C152.955 9.29163 152.066 8.95322 150.853 8.95322C150.055 8.95322 149.362 9.12997 148.776 9.48347C148.19 9.82691 147.735 10.3217 147.411 10.9681C147.098 11.6045 146.941 12.3668 146.941 13.2556V22.9058H143.651ZM163.33 28.693C163.128 28.693 162.911 28.6827 162.679 28.6626C162.446 28.6525 162.224 28.6374 162.012 28.6171V26.0267C162.173 26.0468 162.35 26.0619 162.542 26.0719C162.744 26.0822 162.936 26.0873 163.118 26.0873C163.887 26.0873 164.508 25.9055 164.983 25.5419C165.458 25.1884 165.817 24.5976 166.06 23.7694L166.302 22.9211L160.329 6.45356H163.892L168.546 21.2848L167.515 19.5882H168.773L167.758 21.2848L172.397 6.45356H175.869L169.744 23.527C169.279 24.8399 168.763 25.87 168.197 26.6175C167.631 27.3748 166.959 27.9101 166.181 28.2233C165.403 28.5364 164.452 28.693 163.33 28.693ZM181.751 23.1481C181.125 23.1481 180.594 22.9311 180.159 22.4967C179.735 22.0625 179.523 21.5423 179.523 20.9363C179.523 20.3103 179.735 19.7851 180.159 19.3609C180.594 18.9368 181.125 18.7246 181.751 18.7246C182.388 18.7246 182.919 18.9368 183.343 19.3609C183.768 19.7851 183.98 20.3103 183.98 20.9363C183.98 21.5423 183.768 22.0625 183.343 22.4967C182.919 22.9311 182.388 23.1481 181.751 23.1481ZM181.751 11.6952C181.125 11.6952 180.594 11.478 180.159 11.0438C179.735 10.6096 179.523 10.0894 179.523 9.48347C179.523 8.85719 179.735 8.33219 180.159 7.90781C180.594 7.48366 181.125 7.27169 181.751 7.27169C182.388 7.27169 182.919 7.48366 183.343 7.90781C183.768 8.33219 183.98 8.85719 183.98 9.48347C183.98 10.0894 183.768 10.6096 183.343 11.0438C182.919 11.478 182.388 11.6952 181.751 11.6952Z" fill="var(--fill-0, black)"/>
</svg>
